<?xml version="1.0" encoding="utf-8"?>
<!-- Generator: Adobe Illustrator 16.0.3, SVG Export Plug-In . SVG Version: 6.00 Build 0)  -->
<!DOCTYPE svg PUBLIC "-//W3C//DTD SVG 1.1//EN" "http://www.w3.org/Graphics/SVG/1.1/DTD/svg11.dtd">
<svg version="1.1"
	 id="svg2" xmlns:sodipodi="http://inkscape.sourceforge.net/DTD/sodipodi-0.dtd" xmlns:dc="http://purl.org/dc/elements/1.1/" xmlns:svg="http://www.w3.org/2000/svg" xmlns:inkscape="http://www.inkscape.org/namespaces/inkscape" xmlns:cc="http://web.resource.org/cc/" xmlns:rdf="http://www.w3.org/1999/02/22-rdf-syntax-ns#" inkscape:export-ydpi="90" inkscape:export-xdpi="90" inkscape:version="0.43" inkscape:export-filename="/home/silvestre/Gion/folder.png" sodipodi:version="0.32" sodipodi:docname="folder.svg" sodipodi:docbase="/home/silvestre/Desktop/Gion/scalable/places"
	 xmlns="http://www.w3.org/2000/svg" xmlns:xlink="http://www.w3.org/1999/xlink" x="0px" y="0px" width="48px" height="48px"
	 viewBox="0 0 48 48" enable-background="new 0 0 48 48" xml:space="preserve">
<sodipodi:namedview  inkscape:zoom="1" inkscape:cy="24" borderopacity="1.0" inkscape:cx="24" showborder="false" id="base" showgrid="false" pagecolor="#ffffff" bordercolor="#666666" inkscape:pageshadow="2" inkscape:pageopacity="0.0" showguides="true" inkscape:guide-bbox="true" inkscape:window-y="74" inkscape:window-x="-151" inkscape:window-height="578" inkscape:window-width="885" inkscape:document-units="px" inkscape:grid-bbox="false" inkscape:current-layer="layer3">
	</sodipodi:namedview>
<g id="layer1" inkscape:label="back-folder" inkscape:groupmode="layer" sodipodi:insensitive="true">
	
		<radialGradient id="path1336_1_" cx="252.1006" cy="-1328.0176" r="22.5044" fx="246.5906" fy="-1322.7566" gradientTransform="matrix(1.0222 0 0 -0.2889 -233.6914 -342.1313)" gradientUnits="userSpaceOnUse">
		<stop  offset="0" style="stop-color:#000000"/>
		<stop  offset="1" style="stop-color:#000000;stop-opacity:0"/>
	</radialGradient>
	
		<path id="path1336" sodipodi:type="arc" sodipodi:cx="24.523569" sodipodi:rx="22.501007" sodipodi:ry="3.9187145" sodipodi:cy="43.954876" opacity="0.7792" fill="url(#path1336_1_)" enable-background="new    " d="
		M47,41.5c0.004,3.59-10.291,6.501-22.993,6.502C11.304,48.003,1.004,45.094,1,41.504c0-0.002,0-0.002,0-0.004
		c-0.003-3.59,10.291-6.501,22.993-6.502S46.996,37.906,47,41.496C47,41.498,47,41.499,47,41.5z"/>
	
		<linearGradient id="path1307_1_" gradientUnits="userSpaceOnUse" x1="267.8965" y1="-330.499" x2="254.0586" y2="-330.499" gradientTransform="matrix(1 0 0 -1 -237.4824 -308)">
		<stop  offset="0" style="stop-color:#898989"/>
		<stop  offset="1" style="stop-color:#B2B2B2"/>
	</linearGradient>
	
		<path id="path1307" sodipodi:nodetypes="ccccccc" fill="url(#path1307_1_)" stroke="#636363" stroke-width="1" stroke-linejoin="round" d="
		M43.518,1.5C35.793,2.935,20.139,3.789,8.525,3.492v25.006H5.518v14.94c13.816,0.14,27.627,0.274,38-2.417V1.5z"/>
	
		<linearGradient id="path2236_1_" gradientUnits="userSpaceOnUse" x1="256.0625" y1="-333.5103" x2="247.799" y2="-333.5103" gradientTransform="matrix(1 0 0 -1 -237.4824 -308)">
		<stop  offset="0" style="stop-color:#000000;stop-opacity:0.6824"/>
		<stop  offset="1" style="stop-color:#000000;stop-opacity:0"/>
	</linearGradient>
	<path id="path2236" sodipodi:nodetypes="ccccccsscc" fill="url(#path2236_1_)" d="M41.33,3c-3.622,4.919-18.737,6.011-31.323,7.156
		V44c0.009,0,0.032,0,0.032,0l5.376,4.022L37.873,44c0.164,0,0.332,0.029,0.484,0.062c0.018,0.004,0.016-0.004,0.033,0
		c0.603-0.379,1.141-0.799,1.583-1.25L41.33,3z"/>
	
		<linearGradient id="path2231_1_" gradientUnits="userSpaceOnUse" x1="259.4209" y1="-309.6035" x2="263.8452" y2="-345.423" gradientTransform="matrix(1 0 0 -1 -237.4824 -308)">
		<stop  offset="0" style="stop-color:#FFFFFF;stop-opacity:0.8485"/>
		<stop  offset="1" style="stop-color:#FFFFFF;stop-opacity:0.3232"/>
	</linearGradient>
	
		<path id="path2231" sodipodi:nodetypes="ccccccc" fill="none" stroke="url(#path2231_1_)" stroke-width="1" stroke-linejoin="round" d="
		M42.545,2.634c-7.327,1.368-22.013,2.132-33.027,1.85v25.023H6.505v12.945c13.104,0.133,26.202,0.262,36.04-2.304V2.634z"/>
	<g id="g3118" opacity="0.1861">
		
			<linearGradient id="path3092_1_" gradientUnits="userSpaceOnUse" x1="244.792" y1="-313.5088" x2="242.0733" y2="-313.5088" gradientTransform="matrix(1 0 0 -1 -233.5 -308)">
			<stop  offset="0" style="stop-color:#636363"/>
			<stop  offset="1" style="stop-color:#636363;stop-opacity:0"/>
		</linearGradient>
		<path id="path3092" sodipodi:nodetypes="cc" fill="none" stroke="url(#path3092_1_)" stroke-width="1" d="M9.515,6.466
			c15.062,0.178,25.107-0.751,33.978-1.94"/>
		
			<linearGradient id="path3096_1_" gradientUnits="userSpaceOnUse" x1="244.793" y1="-316.4824" x2="242.0742" y2="-316.4824" gradientTransform="matrix(1 0 0 -1 -233.5 -308)">
			<stop  offset="0" style="stop-color:#636363"/>
			<stop  offset="1" style="stop-color:#636363;stop-opacity:0"/>
		</linearGradient>
		<path id="path3096" sodipodi:nodetypes="cc" fill="none" stroke="url(#path3096_1_)" stroke-width="1" d="M9.5,9.44
			C24.561,9.618,34.607,8.689,43.479,7.5"/>
		
			<linearGradient id="path3098_1_" gradientUnits="userSpaceOnUse" x1="244.792" y1="-319.4824" x2="242.0733" y2="-319.4824" gradientTransform="matrix(1 0 0 -1 -233.5 -308)">
			<stop  offset="0" style="stop-color:#636363"/>
			<stop  offset="1" style="stop-color:#636363;stop-opacity:0"/>
		</linearGradient>
		<path id="path3098" sodipodi:nodetypes="cc" fill="none" stroke="url(#path3098_1_)" stroke-width="1" d="M9.515,12.44
			c15.062,0.178,25.107-0.751,33.978-1.94"/>
		
			<linearGradient id="path3100_1_" gradientUnits="userSpaceOnUse" x1="244.792" y1="-322.4824" x2="242.0733" y2="-322.4824" gradientTransform="matrix(1 0 0 -1 -233.5 -308)">
			<stop  offset="0" style="stop-color:#636363"/>
			<stop  offset="1" style="stop-color:#636363;stop-opacity:0"/>
		</linearGradient>
		<path id="path3100" sodipodi:nodetypes="cc" fill="none" stroke="url(#path3100_1_)" stroke-width="1" d="M9.515,15.44
			c15.062,0.178,25.107-0.751,33.978-1.94"/>
		
			<linearGradient id="path3102_1_" gradientUnits="userSpaceOnUse" x1="244.792" y1="-325.4824" x2="242.0733" y2="-325.4824" gradientTransform="matrix(1 0 0 -1 -233.5 -308)">
			<stop  offset="0" style="stop-color:#636363"/>
			<stop  offset="1" style="stop-color:#636363;stop-opacity:0"/>
		</linearGradient>
		<path id="path3102" sodipodi:nodetypes="cc" fill="none" stroke="url(#path3102_1_)" stroke-width="1" d="M9.515,18.44
			c15.062,0.178,25.107-0.751,33.978-1.94"/>
		
			<linearGradient id="path3104_1_" gradientUnits="userSpaceOnUse" x1="244.792" y1="-328.4824" x2="242.0733" y2="-328.4824" gradientTransform="matrix(1 0 0 -1 -233.5 -308)">
			<stop  offset="0" style="stop-color:#636363"/>
			<stop  offset="1" style="stop-color:#636363;stop-opacity:0"/>
		</linearGradient>
		<path id="path3104" sodipodi:nodetypes="cc" fill="none" stroke="url(#path3104_1_)" stroke-width="1" d="M9.515,21.44
			c15.062,0.178,25.107-0.751,33.978-1.94"/>
		
			<linearGradient id="path3106_1_" gradientUnits="userSpaceOnUse" x1="244.792" y1="-331.5205" x2="242.0733" y2="-331.5205" gradientTransform="matrix(1 0 0 -1 -233.5 -308)">
			<stop  offset="0" style="stop-color:#636363"/>
			<stop  offset="1" style="stop-color:#636363;stop-opacity:0"/>
		</linearGradient>
		<path id="path3106" sodipodi:nodetypes="cc" fill="none" stroke="url(#path3106_1_)" stroke-width="1" d="M9.515,24.478
			c15.062,0.178,25.107-0.751,33.978-1.94"/>
		
			<linearGradient id="path3108_1_" gradientUnits="userSpaceOnUse" x1="244.792" y1="-334.5205" x2="242.0733" y2="-334.5205" gradientTransform="matrix(1 0 0 -1 -233.5 -308)">
			<stop  offset="0" style="stop-color:#636363"/>
			<stop  offset="1" style="stop-color:#636363;stop-opacity:0"/>
		</linearGradient>
		<path id="path3108" sodipodi:nodetypes="cc" fill="none" stroke="url(#path3108_1_)" stroke-width="1" d="M9.515,27.479
			c15.062,0.178,25.107-0.752,33.978-1.94"/>
		
			<linearGradient id="path3110_1_" gradientUnits="userSpaceOnUse" x1="244.793" y1="-337.9458" x2="242.0743" y2="-337.9458" gradientTransform="matrix(1 0 0 -1 -233.5 -308)">
			<stop  offset="0" style="stop-color:#636363"/>
			<stop  offset="1" style="stop-color:#636363;stop-opacity:0"/>
		</linearGradient>
		<path id="path3110" sodipodi:nodetypes="cc" fill="none" stroke="url(#path3110_1_)" stroke-width="1" d="M5.507,30.904
			c16.812,0.178,28.026-0.752,37.928-1.94"/>
		
			<linearGradient id="path3112_1_" gradientUnits="userSpaceOnUse" x1="244.793" y1="-340.52" x2="242.0742" y2="-340.52" gradientTransform="matrix(1 0 0 -1 -233.5 -308)">
			<stop  offset="0" style="stop-color:#636363"/>
			<stop  offset="1" style="stop-color:#636363;stop-opacity:0"/>
		</linearGradient>
		<path id="path3112" sodipodi:nodetypes="cc" fill="none" stroke="url(#path3112_1_)" stroke-width="1" d="M5.558,33.479
			c16.789,0.178,27.989-0.752,37.878-1.94"/>
		
			<linearGradient id="path3114_1_" gradientUnits="userSpaceOnUse" x1="244.793" y1="-343.4814" x2="242.0742" y2="-343.4814" gradientTransform="matrix(1 0 0 -1 -233.5 -308)">
			<stop  offset="0" style="stop-color:#636363"/>
			<stop  offset="1" style="stop-color:#636363;stop-opacity:0"/>
		</linearGradient>
		<path id="path3114" sodipodi:nodetypes="cc" fill="none" stroke="url(#path3114_1_)" stroke-width="1" d="M5.558,36.439
			c16.789,0.179,27.989-0.75,37.878-1.939"/>
		
			<linearGradient id="path3094_1_" gradientUnits="userSpaceOnUse" x1="244.793" y1="-346.4814" x2="242.0742" y2="-346.4814" gradientTransform="matrix(1 0 0 -1 -233.5 -308)">
			<stop  offset="0" style="stop-color:#636363"/>
			<stop  offset="1" style="stop-color:#636363;stop-opacity:0"/>
		</linearGradient>
		<path id="path3094" sodipodi:nodetypes="cc" fill="none" stroke="url(#path3094_1_)" stroke-width="1" d="M5.558,39.439
			c16.789,0.179,27.989-0.75,37.878-1.939"/>
	</g>
	<g id="g3126" transform="translate(0,4)">
		
			<path id="text3112" sodipodi:nodetypes="ccccccccccccsssssssccsssssssccccccccccccsssssssccsssssssccccsssccsssssssccssscccsssccccccssscc" d="
			M-0.491,51.27h4.059v1.137H1.013v1.086h2.402v1.137H1.013v2.473h-1.504V51.27 M6.998,53.621c-0.31,0-0.547,0.112-0.711,0.336
			c-0.161,0.222-0.242,0.542-0.242,0.961c0,0.42,0.081,0.741,0.242,0.965c0.164,0.222,0.401,0.332,0.711,0.332
			c0.305,0,0.538-0.11,0.699-0.332c0.162-0.224,0.242-0.545,0.242-0.965c0-0.419-0.081-0.739-0.242-0.961
			C7.536,53.733,7.302,53.621,6.998,53.621 M6.998,52.621c0.753,0,1.34,0.203,1.762,0.609c0.425,0.406,0.637,0.969,0.637,1.688
			s-0.212,1.281-0.637,1.688c-0.422,0.406-1.009,0.609-1.762,0.609c-0.755,0-1.346-0.203-1.773-0.609
			c-0.424-0.406-0.637-0.969-0.637-1.688S4.8,53.637,5.224,53.23C5.651,52.824,6.243,52.621,6.998,52.621 M10.416,51.023h1.398
			v6.078h-1.398V51.023 M16.142,53.367v-2.344h1.406v6.078h-1.406v-0.633c-0.192,0.258-0.405,0.447-0.637,0.566
			c-0.231,0.12-0.5,0.18-0.805,0.18c-0.539,0-0.981-0.213-1.328-0.641c-0.346-0.43-0.52-0.981-0.52-1.656
			c0-0.674,0.173-1.225,0.52-1.652c0.347-0.43,0.789-0.645,1.328-0.645c0.302,0,0.569,0.062,0.801,0.184
			C15.736,52.925,15.95,53.112,16.142,53.367 M15.22,56.199c0.3,0,0.527-0.109,0.684-0.328c0.159-0.219,0.238-0.536,0.238-0.953
			c0-0.416-0.079-0.734-0.238-0.953c-0.156-0.219-0.384-0.328-0.684-0.328c-0.297,0-0.524,0.109-0.684,0.328
			c-0.156,0.219-0.234,0.537-0.234,0.953c0,0.417,0.078,0.734,0.234,0.953C14.696,56.09,14.923,56.199,15.22,56.199 M23.267,54.902
			v0.398h-3.27c0.034,0.328,0.152,0.574,0.355,0.738s0.487,0.246,0.852,0.246c0.294,0,0.595-0.043,0.902-0.129
			c0.31-0.088,0.628-0.221,0.953-0.398v1.078c-0.331,0.125-0.661,0.219-0.992,0.281c-0.331,0.065-0.661,0.098-0.992,0.098
			c-0.792,0-1.407-0.2-1.848-0.602c-0.438-0.403-0.656-0.969-0.656-1.695c0-0.713,0.215-1.274,0.645-1.684
			c0.433-0.408,1.026-0.613,1.781-0.613c0.688,0,1.237,0.207,1.648,0.621C23.06,53.656,23.267,54.21,23.267,54.902 M21.83,54.438
			c0-0.266-0.078-0.479-0.234-0.641c-0.153-0.164-0.355-0.246-0.605-0.246c-0.271,0-0.491,0.077-0.66,0.23
			c-0.169,0.151-0.274,0.37-0.316,0.656H21.83 M27.588,53.918c-0.123-0.057-0.245-0.099-0.367-0.125
			c-0.12-0.028-0.241-0.043-0.363-0.043c-0.359,0-0.637,0.116-0.832,0.348c-0.193,0.229-0.289,0.559-0.289,0.988v2.016h-1.399
			v-4.375h1.399v0.719c0.18-0.286,0.385-0.494,0.617-0.625c0.234-0.133,0.514-0.199,0.84-0.199c0.047,0,0.098,0.003,0.152,0.008
			c0.055,0.003,0.134,0.011,0.238,0.023L27.588,53.918"/>
		
			<path id="path3124" sodipodi:nodetypes="csssssssccssssssscccccccsccccsccccccccccsssssccsssssccsssssccssssscccccccccccccccccccccccccccsssccsssssssccsssccccsssssccsssssccsssssccssssscccccccsccccsccccccccsssccccccssscccccsssccsssssssccsssccccccccccccccccccsssccsssssssccssscccsssccccccssscccsssccccccssscccccsssccsssssssccssscccsssccccccssscccssssscccccccssssscccsssccsssc" fill="#646464" d="
			M2.669,62.134c0-0.528-0.109-0.942-0.328-1.242c-0.216-0.302-0.514-0.453-0.895-0.453c-0.38,0-0.68,0.151-0.898,0.453
			c-0.216,0.3-0.324,0.714-0.324,1.242s0.108,0.944,0.324,1.246c0.219,0.3,0.519,0.449,0.898,0.449c0.38,0,0.679-0.149,0.895-0.449
			C2.56,63.078,2.669,62.662,2.669,62.134 M0.224,60.606c0.151-0.261,0.341-0.453,0.57-0.578c0.232-0.128,0.508-0.191,0.828-0.191
			c0.531,0,0.962,0.211,1.293,0.633c0.333,0.422,0.5,0.977,0.5,1.664s-0.167,1.242-0.5,1.664c-0.331,0.422-0.762,0.633-1.293,0.633
			c-0.32,0-0.596-0.062-0.828-0.188c-0.229-0.128-0.419-0.321-0.57-0.582v0.656h-0.723v-6.078h0.723V60.606 M6.427,64.724
			c-0.203,0.521-0.401,0.86-0.594,1.02c-0.192,0.159-0.45,0.238-0.773,0.238H4.486V65.38h0.422c0.198,0,0.352-0.047,0.461-0.141
			s0.23-0.315,0.363-0.664l0.129-0.328l-1.77-4.305h0.762l1.367,3.422l1.367-3.422h0.762L6.427,64.724 M15.416,58.677v0.77
			c-0.299-0.144-0.582-0.25-0.848-0.32s-0.522-0.105-0.77-0.105c-0.43,0-0.762,0.083-0.996,0.25
			c-0.231,0.167-0.348,0.403-0.348,0.711c0,0.258,0.077,0.453,0.23,0.586c0.156,0.13,0.451,0.235,0.883,0.316l0.477,0.098
			c0.589,0.112,1.022,0.31,1.301,0.594c0.281,0.281,0.422,0.659,0.422,1.133c0,0.565-0.19,0.993-0.57,1.285
			c-0.377,0.292-0.932,0.438-1.664,0.438c-0.276,0-0.57-0.031-0.883-0.094c-0.31-0.062-0.631-0.155-0.965-0.277v-0.812
			c0.32,0.18,0.634,0.315,0.941,0.406c0.308,0.091,0.609,0.137,0.906,0.137c0.451,0,0.798-0.089,1.043-0.266
			c0.245-0.177,0.367-0.43,0.367-0.758c0-0.286-0.088-0.511-0.266-0.672c-0.174-0.161-0.462-0.282-0.863-0.363l-0.48-0.094
			c-0.588-0.117-1.014-0.301-1.277-0.551c-0.263-0.25-0.395-0.598-0.395-1.043c0-0.516,0.181-0.922,0.543-1.219
			c0.365-0.297,0.866-0.445,1.504-0.445c0.273,0,0.552,0.024,0.836,0.074C14.829,58.504,15.119,58.578,15.416,58.677 M16.982,59.942
			h0.719v4.375h-0.719V59.942 M16.982,58.239h0.719v0.91h-0.719V58.239 M19.201,58.239h0.719v6.078h-0.719V58.239 M20.904,59.942
			h0.762l1.367,3.672l1.367-3.672h0.762l-1.641,4.375h-0.977L20.904,59.942 M29.896,61.95v0.352h-3.305
			c0.031,0.495,0.18,0.872,0.445,1.133c0.268,0.258,0.641,0.387,1.117,0.387c0.275,0,0.543-0.034,0.801-0.102
			c0.26-0.067,0.518-0.169,0.773-0.305v0.68c-0.258,0.109-0.522,0.192-0.793,0.25c-0.271,0.058-0.546,0.086-0.824,0.086
			c-0.698,0-1.252-0.203-1.66-0.609c-0.406-0.406-0.609-0.956-0.609-1.648c0-0.716,0.192-1.284,0.578-1.703
			c0.388-0.422,0.91-0.633,1.566-0.633c0.588,0,1.053,0.19,1.395,0.57C29.725,60.785,29.896,61.299,29.896,61.95 M29.178,61.739
			c-0.006-0.394-0.116-0.707-0.332-0.941c-0.214-0.234-0.498-0.352-0.852-0.352c-0.401,0-0.723,0.113-0.965,0.34
			c-0.24,0.227-0.378,0.546-0.414,0.957L29.178,61.739 M33.85,60.071v0.68c-0.203-0.104-0.414-0.183-0.633-0.234
			s-0.445-0.078-0.68-0.078c-0.357,0-0.625,0.055-0.805,0.164c-0.178,0.109-0.266,0.273-0.266,0.492
			c0,0.167,0.063,0.298,0.191,0.395c0.127,0.094,0.384,0.184,0.77,0.27l0.246,0.055c0.51,0.109,0.872,0.265,1.086,0.465
			c0.216,0.198,0.324,0.476,0.324,0.832c0,0.406-0.162,0.728-0.484,0.965c-0.32,0.237-0.762,0.355-1.324,0.355
			c-0.234,0-0.479-0.023-0.734-0.07c-0.253-0.044-0.52-0.112-0.801-0.203v-0.742c0.266,0.138,0.527,0.242,0.785,0.312
			c0.258,0.067,0.513,0.102,0.766,0.102c0.338,0,0.599-0.058,0.781-0.172c0.182-0.117,0.273-0.281,0.273-0.492
			c0-0.195-0.066-0.345-0.199-0.449c-0.131-0.104-0.418-0.204-0.863-0.301l-0.25-0.059c-0.445-0.094-0.768-0.237-0.965-0.43
			c-0.198-0.195-0.297-0.462-0.297-0.801c0-0.411,0.146-0.729,0.438-0.953c0.291-0.224,0.705-0.336,1.242-0.336
			c0.266,0,0.516,0.02,0.75,0.059S33.651,59.993,33.85,60.071 M35.928,58.7v1.242h1.48v0.559h-1.48v2.375
			c0,0.356,0.048,0.586,0.145,0.688c0.099,0.102,0.298,0.152,0.598,0.152h0.738v0.602H36.67c-0.555,0-0.938-0.103-1.148-0.309
			c-0.211-0.208-0.316-0.586-0.316-1.133v-2.375h-0.527v-0.559h0.527V58.7H35.928 M40.893,60.614
			c-0.081-0.047-0.17-0.081-0.266-0.102c-0.094-0.023-0.198-0.035-0.312-0.035c-0.406,0-0.719,0.133-0.938,0.398
			c-0.217,0.263-0.324,0.642-0.324,1.137v2.305H38.33v-4.375h0.723v0.68c0.15-0.266,0.348-0.462,0.59-0.59
			c0.242-0.13,0.536-0.195,0.883-0.195c0.049,0,0.104,0.004,0.164,0.012c0.06,0.005,0.126,0.015,0.199,0.027L40.893,60.614
			 M45.381,61.95v0.352h-3.305c0.031,0.495,0.18,0.872,0.445,1.133c0.268,0.258,0.641,0.387,1.117,0.387
			c0.275,0,0.543-0.034,0.801-0.102c0.26-0.067,0.518-0.169,0.773-0.305v0.68c-0.258,0.109-0.522,0.192-0.793,0.25
			c-0.271,0.058-0.546,0.086-0.824,0.086c-0.698,0-1.252-0.203-1.66-0.609c-0.406-0.406-0.609-0.956-0.609-1.648
			c0-0.716,0.192-1.284,0.578-1.703c0.388-0.422,0.91-0.633,1.566-0.633c0.588,0,1.053,0.19,1.395,0.57
			C45.209,60.785,45.381,61.299,45.381,61.95 M44.662,61.739c-0.006-0.394-0.116-0.707-0.332-0.941
			c-0.214-0.234-0.498-0.352-0.852-0.352c-0.401,0-0.723,0.113-0.965,0.34c-0.24,0.227-0.378,0.546-0.414,0.957L44.662,61.739
			 M49.123,58.485h0.789v2.391h2.867v-2.391h0.789v5.832h-0.789V61.54h-2.867v2.777h-0.789V58.485 M58.85,61.95v0.352h-3.305
			c0.031,0.495,0.18,0.872,0.445,1.133c0.268,0.258,0.641,0.387,1.117,0.387c0.275,0,0.543-0.034,0.801-0.102
			c0.26-0.067,0.518-0.169,0.773-0.305v0.68c-0.258,0.109-0.522,0.192-0.793,0.25c-0.271,0.058-0.546,0.086-0.824,0.086
			c-0.698,0-1.252-0.203-1.66-0.609c-0.406-0.406-0.609-0.956-0.609-1.648c0-0.716,0.192-1.284,0.578-1.703
			c0.388-0.422,0.91-0.633,1.566-0.633c0.588,0,1.053,0.19,1.395,0.57C58.678,60.785,58.85,61.299,58.85,61.95 M58.131,61.739
			c-0.006-0.394-0.116-0.707-0.332-0.941c-0.214-0.234-0.498-0.352-0.852-0.352c-0.401,0-0.723,0.113-0.965,0.34
			c-0.24,0.227-0.378,0.546-0.414,0.957L58.131,61.739 M62.549,60.614c-0.081-0.047-0.17-0.081-0.266-0.102
			c-0.094-0.023-0.198-0.035-0.312-0.035c-0.406,0-0.719,0.133-0.938,0.398c-0.217,0.263-0.324,0.642-0.324,1.137v2.305h-0.723
			v-4.375h0.723v0.68c0.15-0.266,0.348-0.462,0.59-0.59c0.242-0.13,0.536-0.195,0.883-0.195c0.049,0,0.104,0.004,0.164,0.012
			c0.06,0.005,0.126,0.015,0.199,0.027L62.549,60.614 M65.83,60.614c-0.081-0.047-0.17-0.081-0.266-0.102
			c-0.094-0.023-0.198-0.035-0.312-0.035c-0.406,0-0.719,0.133-0.938,0.398c-0.217,0.263-0.324,0.642-0.324,1.137v2.305h-0.723
			v-4.375h0.723v0.68c0.15-0.266,0.348-0.462,0.59-0.59c0.242-0.13,0.536-0.195,0.883-0.195c0.049,0,0.104,0.004,0.164,0.012
			c0.06,0.005,0.126,0.015,0.199,0.027L65.83,60.614 M70.318,61.95v0.352h-3.305c0.031,0.495,0.18,0.872,0.445,1.133
			c0.268,0.258,0.641,0.387,1.117,0.387c0.275,0,0.543-0.034,0.801-0.102c0.26-0.067,0.518-0.169,0.773-0.305v0.68
			c-0.258,0.109-0.522,0.192-0.793,0.25c-0.271,0.058-0.546,0.086-0.824,0.086c-0.698,0-1.252-0.203-1.66-0.609
			c-0.406-0.406-0.609-0.956-0.609-1.648c0-0.716,0.192-1.284,0.578-1.703c0.388-0.422,0.91-0.633,1.566-0.633
			c0.588,0,1.053,0.19,1.395,0.57C70.146,60.785,70.318,61.299,70.318,61.95 M69.6,61.739c-0.006-0.394-0.116-0.707-0.332-0.941
			c-0.214-0.234-0.498-0.352-0.852-0.352c-0.401,0-0.723,0.113-0.965,0.34c-0.24,0.227-0.378,0.546-0.414,0.957L69.6,61.739
			 M74.018,60.614c-0.081-0.047-0.17-0.081-0.266-0.102c-0.094-0.023-0.198-0.035-0.312-0.035c-0.406,0-0.719,0.133-0.938,0.398
			c-0.217,0.263-0.324,0.642-0.324,1.137v2.305h-0.723v-4.375h0.723v0.68c0.15-0.266,0.348-0.462,0.59-0.59
			c0.242-0.13,0.536-0.195,0.883-0.195c0.049,0,0.104,0.004,0.164,0.012c0.06,0.005,0.126,0.015,0.199,0.027L74.018,60.614
			 M76.752,62.118c-0.581,0-0.983,0.066-1.207,0.199c-0.225,0.133-0.336,0.359-0.336,0.68c0,0.255,0.083,0.458,0.25,0.609
			c0.169,0.148,0.398,0.223,0.688,0.223c0.398,0,0.717-0.141,0.957-0.422c0.242-0.284,0.363-0.66,0.363-1.129v-0.16H76.752
			 M78.186,61.821v2.496h-0.719v-0.664c-0.164,0.266-0.369,0.462-0.613,0.59c-0.245,0.125-0.545,0.188-0.898,0.188
			c-0.448,0-0.805-0.125-1.07-0.375c-0.264-0.253-0.395-0.59-0.395-1.012c0-0.492,0.164-0.863,0.492-1.113
			c0.33-0.25,0.822-0.375,1.477-0.375h1.008v-0.07c0-0.331-0.109-0.586-0.328-0.766c-0.217-0.183-0.521-0.273-0.914-0.273
			c-0.25,0-0.494,0.03-0.73,0.09c-0.237,0.06-0.465,0.149-0.684,0.27v-0.664c0.263-0.102,0.518-0.177,0.766-0.227
			c0.247-0.052,0.488-0.078,0.723-0.078c0.633,0,1.105,0.164,1.418,0.492S78.186,61.154,78.186,61.821"/>
	</g>
	
		<linearGradient id="rect2194_1_" gradientUnits="userSpaceOnUse" x1="176.8281" y1="-343.9785" x2="177.8688" y2="-343.9785" gradientTransform="matrix(1.3333 0 0 -1 -227.6488 -308)">
		<stop  offset="0.0041" style="stop-color:#E01C00"/>
		<stop  offset="1" style="stop-color:#FF2C17;stop-opacity:0"/>
	</linearGradient>
	
		<rect id="rect2194_2_" x="5.875" y="28.964" opacity="0.5801" fill="url(#rect2194_1_)" enable-background="new    " width="3.632" height="14.029"/>
</g>
<g id="layer3" inkscape:label="folder-color" inkscape:groupmode="layer">
	<path id="path2182" sodipodi:nodetypes="ccccc" fill="#2FB4D3" stroke="#1A7682" stroke-width="1" stroke-linejoin="round" d="
		M43.513,1.501C40.008,6.42,27.678,7.498,15.5,8.643V47.5c11.599-1.006,23.796-1.732,28.012-6.174V1.501z"/>
</g>
<g id="layer2" inkscape:label="lights" inkscape:groupmode="layer" sodipodi:insensitive="true">
	
		<radialGradient id="path2252_1_" cx="95.8496" cy="-59.2871" r="13.0262" gradientTransform="matrix(2.4523 0 0 -3.1216 -211.2538 -167.6289)" gradientUnits="userSpaceOnUse">
		<stop  offset="0" style="stop-color:#000000;stop-opacity:0"/>
		<stop  offset="0.47" style="stop-color:#000000;stop-opacity:0.1647"/>
		<stop  offset="1" style="stop-color:#000000;stop-opacity:0.6667"/>
	</radialGradient>
	<path id="path2252" sodipodi:nodetypes="ccccc" fill="url(#path2252_1_)" d="M43,3c-4.558,3.66-15.264,5.103-27,6.305V47
		c11.18-0.975,22.937-1.68,27-5.987V3z"/>
	
		<radialGradient id="path1364_1_" cx="258.1523" cy="-164.8242" r="13.0266" gradientTransform="matrix(1 0 0 -1.6928 -233.5 -263.7643)" gradientUnits="userSpaceOnUse">
		<stop  offset="0" style="stop-color:#FFFFFF;stop-opacity:0.3004"/>
		<stop  offset="1" style="stop-color:#FFFFFF;stop-opacity:0"/>
	</radialGradient>
	<path id="path1364" sodipodi:nodetypes="ccccc" fill="url(#path1364_1_)" d="M42.554,3.489C38.156,7.653,27.825,8.397,16.5,9.557
		v36.966c10.787-0.94,22.133-1.62,26.054-5.776V3.489z"/>
	
		<linearGradient id="path2204_1_" gradientUnits="userSpaceOnUse" x1="259.7588" y1="-316.3979" x2="266.2589" y2="-349.4242" gradientTransform="matrix(1 0 0 -1 -233.5 -308)">
		<stop  offset="0" style="stop-color:#FFFFFF;stop-opacity:0.7098"/>
		<stop  offset="1" style="stop-color:#FFFFFF;stop-opacity:0.1073"/>
	</linearGradient>
	
		<path id="path2204" sodipodi:nodetypes="ccccc" fill="none" stroke="url(#path2204_1_)" stroke-width="1" stroke-linejoin="round" d="
		M42.554,3.489C38.156,7.653,27.825,8.397,16.5,9.557v36.966c10.787-0.94,22.133-1.62,26.054-5.776V3.489z"/>
</g>
</svg>
