<?xml version="1.0" encoding="utf-8"?>
<!-- Generator: Adobe Illustrator 16.0.3, SVG Export Plug-In . SVG Version: 6.00 Build 0)  -->
<!DOCTYPE svg PUBLIC "-//W3C//DTD SVG 1.1//EN" "http://www.w3.org/Graphics/SVG/1.1/DTD/svg11.dtd">
<svg version="1.1"
	 id="svg2" xmlns:sodipodi="http://inkscape.sourceforge.net/DTD/sodipodi-0.dtd" xmlns:dc="http://purl.org/dc/elements/1.1/" xmlns:svg="http://www.w3.org/2000/svg" xmlns:inkscape="http://www.inkscape.org/namespaces/inkscape" xmlns:cc="http://web.resource.org/cc/" xmlns:rdf="http://www.w3.org/1999/02/22-rdf-syntax-ns#" inkscape:export-ydpi="90" inkscape:export-xdpi="90" inkscape:version="0.43" inkscape:export-filename="/home/silvestre/Gion/PNGs/user-desktop.png" sodipodi:version="0.32" sodipodi:docname="user-desktop.svg" sodipodi:docbase="/home/silvestre/Desktop/Gion/scalable/places"
	 xmlns="http://www.w3.org/2000/svg" xmlns:xlink="http://www.w3.org/1999/xlink" x="0px" y="0px" width="48px" height="48px"
	 viewBox="0 0 48 48" enable-background="new 0 0 48 48" xml:space="preserve">
<sodipodi:namedview  inkscape:zoom="1" inkscape:cy="10.943998" borderopacity="1.0" inkscape:cx="32.678237" showborder="false" id="base" showgrid="false" pagecolor="#ffffff" bordercolor="#666666" inkscape:pageshadow="2" inkscape:pageopacity="0.0" inkscape:showpageshadow="false" inkscape:window-y="67" inkscape:window-x="12" inkscape:window-height="578" inkscape:window-width="885" inkscape:document-units="px" inkscape:grid-bbox="false" inkscape:current-layer="layer1">
	</sodipodi:namedview>
<g id="layer1_2_" inkscape:label="back-folder" inkscape:groupmode="layer" sodipodi:insensitive="true">
	
		<radialGradient id="path1336_2_" cx="479.666" cy="2783.7734" r="22.5069" fx="474.1554" fy="2789.0349" gradientTransform="matrix(1.0222 0 0 0.2889 -466.3145 -764.199)" gradientUnits="userSpaceOnUse">
		<stop  offset="0" style="stop-color:#000000"/>
		<stop  offset="1" style="stop-color:#000000;stop-opacity:0"/>
	</radialGradient>
	
		<path id="path1336_1_" sodipodi:type="arc" sodipodi:cx="24.523569" sodipodi:rx="22.501007" sodipodi:ry="3.9187145" sodipodi:cy="43.954876" opacity="0.7792" fill="url(#path1336_2_)" enable-background="new    " d="
		M47,40c0.004,3.59-10.291,6.501-22.994,6.502S1.003,43.594,1,40.004C1,40.002,1,40.002,1,40c-0.003-3.59,10.291-6.501,22.993-6.502
		C36.695,33.497,46.996,36.406,47,39.996C47,39.998,47,39.999,47,40z"/>
	
		<linearGradient id="path1307_2_" gradientUnits="userSpaceOnUse" x1="501.3965" y1="813.999" x2="487.5586" y2="813.999" gradientTransform="matrix(1 0 0 1 -470.9824 -793)">
		<stop  offset="0" style="stop-color:#898989"/>
		<stop  offset="1" style="stop-color:#B2B2B2"/>
	</linearGradient>
	<path id="path1307_1_" sodipodi:nodetypes="ccccccc" fill="url(#path1307_2_)" stroke="#636363" stroke-linejoin="round" d="
		M43.518,0C35.793,1.436,20.139,2.289,8.524,1.992v25.006H5.518v14.939c13.816,0.141,27.627,0.274,38-2.416V0z"/>
	
		<linearGradient id="path2236_2_" gradientUnits="userSpaceOnUse" x1="489.5615" y1="817.0107" x2="481.2978" y2="817.0107" gradientTransform="matrix(1 0 0 1 -470.9824 -793)">
		<stop  offset="0" style="stop-color:#000000;stop-opacity:0.6824"/>
		<stop  offset="1" style="stop-color:#000000;stop-opacity:0"/>
	</linearGradient>
	<path id="path2236_1_" sodipodi:nodetypes="ccccccsscc" fill="url(#path2236_2_)" d="M41.33,1.5
		c-3.623,4.919-18.738,6.011-31.324,7.156V42.5c0.009,0,0.032,0,0.032,0l5.376,4.021L37.873,42.5c0.164,0,0.332,0.029,0.484,0.062
		c0.018,0.004,0.016-0.004,0.033,0c0.602-0.379,1.141-0.799,1.582-1.25L41.33,1.5z"/>
	
		<linearGradient id="rect2194_1_" gradientUnits="userSpaceOnUse" x1="177.0977" y1="-342.4785" x2="178.2435" y2="-342.4785" gradientTransform="matrix(1.3333 0 0 -1 -227.6488 -308)">
		<stop  offset="0.0041" style="stop-color:#E01C00"/>
		<stop  offset="1" style="stop-color:#FF2C17;stop-opacity:0"/>
	</linearGradient>
	
		<rect id="rect2194_3_" x="6.006" y="27.464" opacity="0.5801" fill="url(#rect2194_1_)" enable-background="new    " width="4" height="14.029"/>
	<g id="g3118_1_" opacity="0.1861">
		
			<linearGradient id="path3092_2_" gradientUnits="userSpaceOnUse" x1="478.292" y1="797.0088" x2="475.5734" y2="797.0088" gradientTransform="matrix(1 0 0 1 -467 -793)">
			<stop  offset="0" style="stop-color:#636363"/>
			<stop  offset="1" style="stop-color:#636363;stop-opacity:0"/>
		</linearGradient>
		<path id="path3092_1_" sodipodi:nodetypes="cc" fill="none" stroke="url(#path3092_2_)" d="M9.515,4.966
			c15.062,0.179,25.106-0.751,33.978-1.94"/>
		
			<linearGradient id="path3096_2_" gradientUnits="userSpaceOnUse" x1="478.292" y1="799.9834" x2="475.5731" y2="799.9834" gradientTransform="matrix(1 0 0 1 -467 -793)">
			<stop  offset="0" style="stop-color:#636363"/>
			<stop  offset="1" style="stop-color:#636363;stop-opacity:0"/>
		</linearGradient>
		<path id="path3096_1_" sodipodi:nodetypes="cc" fill="none" stroke="url(#path3096_2_)" d="M9.5,7.939
			C24.561,8.118,34.607,7.189,43.479,6"/>
		
			<linearGradient id="path3098_2_" gradientUnits="userSpaceOnUse" x1="478.292" y1="802.9834" x2="475.5734" y2="802.9834" gradientTransform="matrix(1 0 0 1 -467 -793)">
			<stop  offset="0" style="stop-color:#636363"/>
			<stop  offset="1" style="stop-color:#636363;stop-opacity:0"/>
		</linearGradient>
		<path id="path3098_1_" sodipodi:nodetypes="cc" fill="none" stroke="url(#path3098_2_)" d="M9.515,10.939
			C24.576,11.118,34.621,10.189,43.492,9"/>
		
			<linearGradient id="path3100_2_" gradientUnits="userSpaceOnUse" x1="478.292" y1="805.9834" x2="475.5734" y2="805.9834" gradientTransform="matrix(1 0 0 1 -467 -793)">
			<stop  offset="0" style="stop-color:#636363"/>
			<stop  offset="1" style="stop-color:#636363;stop-opacity:0"/>
		</linearGradient>
		<path id="path3100_1_" sodipodi:nodetypes="cc" fill="none" stroke="url(#path3100_2_)" d="M9.515,13.939
			c15.062,0.179,25.106-0.75,33.978-1.939"/>
		
			<linearGradient id="path3102_2_" gradientUnits="userSpaceOnUse" x1="478.292" y1="808.9834" x2="475.5734" y2="808.9834" gradientTransform="matrix(1 0 0 1 -467 -793)">
			<stop  offset="0" style="stop-color:#636363"/>
			<stop  offset="1" style="stop-color:#636363;stop-opacity:0"/>
		</linearGradient>
		<path id="path3102_1_" sodipodi:nodetypes="cc" fill="none" stroke="url(#path3102_2_)" d="M9.515,16.939
			c15.062,0.179,25.106-0.75,33.978-1.939"/>
		
			<linearGradient id="path3104_2_" gradientUnits="userSpaceOnUse" x1="478.292" y1="811.9834" x2="475.5734" y2="811.9834" gradientTransform="matrix(1 0 0 1 -467 -793)">
			<stop  offset="0" style="stop-color:#636363"/>
			<stop  offset="1" style="stop-color:#636363;stop-opacity:0"/>
		</linearGradient>
		<path id="path3104_1_" sodipodi:nodetypes="cc" fill="none" stroke="url(#path3104_2_)" d="M9.515,19.939
			c15.062,0.179,25.106-0.75,33.978-1.939"/>
		
			<linearGradient id="path3106_2_" gradientUnits="userSpaceOnUse" x1="478.292" y1="815.0215" x2="475.5734" y2="815.0215" gradientTransform="matrix(1 0 0 1 -467 -793)">
			<stop  offset="0" style="stop-color:#636363"/>
			<stop  offset="1" style="stop-color:#636363;stop-opacity:0"/>
		</linearGradient>
		<path id="path3106_1_" sodipodi:nodetypes="cc" fill="none" stroke="url(#path3106_2_)" d="M9.515,22.979
			c15.062,0.178,25.106-0.752,33.978-1.94"/>
		
			<linearGradient id="path3108_2_" gradientUnits="userSpaceOnUse" x1="478.292" y1="818.0225" x2="475.5734" y2="818.0225" gradientTransform="matrix(1 0 0 1 -467 -793)">
			<stop  offset="0" style="stop-color:#636363"/>
			<stop  offset="1" style="stop-color:#636363;stop-opacity:0"/>
		</linearGradient>
		<path id="path3108_1_" sodipodi:nodetypes="cc" fill="none" stroke="url(#path3108_2_)" d="M9.515,25.979
			c15.062,0.179,25.106-0.752,33.978-1.939"/>
		
			<linearGradient id="path3110_2_" gradientUnits="userSpaceOnUse" x1="478.292" y1="821.4463" x2="475.5732" y2="821.4463" gradientTransform="matrix(1 0 0 1 -467 -793)">
			<stop  offset="0" style="stop-color:#636363"/>
			<stop  offset="1" style="stop-color:#636363;stop-opacity:0"/>
		</linearGradient>
		<path id="path3110_1_" sodipodi:nodetypes="cc" fill="none" stroke="url(#path3110_2_)" d="M5.506,29.404
			c16.812,0.178,28.027-0.752,37.929-1.94"/>
		
			<linearGradient id="path3112_2_" gradientUnits="userSpaceOnUse" x1="478.293" y1="824.0225" x2="475.5742" y2="824.0225" gradientTransform="matrix(1 0 0 1 -467 -793)">
			<stop  offset="0" style="stop-color:#636363"/>
			<stop  offset="1" style="stop-color:#636363;stop-opacity:0"/>
		</linearGradient>
		<path id="path3112_1_" sodipodi:nodetypes="cc" fill="none" stroke="url(#path3112_2_)" d="M5.558,31.979
			c16.789,0.179,27.989-0.752,37.878-1.939"/>
		
			<linearGradient id="path3114_2_" gradientUnits="userSpaceOnUse" x1="478.293" y1="826.9834" x2="475.5742" y2="826.9834" gradientTransform="matrix(1 0 0 1 -467 -793)">
			<stop  offset="0" style="stop-color:#636363"/>
			<stop  offset="1" style="stop-color:#636363;stop-opacity:0"/>
		</linearGradient>
		<path id="path3114_1_" sodipodi:nodetypes="cc" fill="none" stroke="url(#path3114_2_)" d="M5.558,34.939
			c16.789,0.179,27.989-0.75,37.878-1.939"/>
		
			<linearGradient id="path3094_2_" gradientUnits="userSpaceOnUse" x1="478.293" y1="829.9834" x2="475.5742" y2="829.9834" gradientTransform="matrix(1 0 0 1 -467 -793)">
			<stop  offset="0" style="stop-color:#636363"/>
			<stop  offset="1" style="stop-color:#636363;stop-opacity:0"/>
		</linearGradient>
		<path id="path3094_1_" sodipodi:nodetypes="cc" fill="none" stroke="url(#path3094_2_)" d="M5.558,37.939
			c16.789,0.179,27.989-0.75,37.878-1.939"/>
	</g>
	
		<linearGradient id="path2231_2_" gradientUnits="userSpaceOnUse" x1="492.9209" y1="793.1035" x2="497.3453" y2="828.9239" gradientTransform="matrix(1 0 0 1 -470.9824 -793)">
		<stop  offset="0" style="stop-color:#FFFFFF;stop-opacity:0.8485"/>
		<stop  offset="1" style="stop-color:#FFFFFF;stop-opacity:0.3232"/>
	</linearGradient>
	<path id="path2231_1_" sodipodi:nodetypes="ccccccc" fill="none" stroke="url(#path2231_2_)" stroke-linejoin="round" d="
		M42.545,1.134C35.217,2.502,20.532,3.266,9.518,2.984v25.022H6.504v12.945c13.104,0.133,26.203,0.262,36.041-2.304V1.134z"/>
</g>
<g id="layer3_2_" inkscape:label="folder-color" inkscape:groupmode="layer">
	<path id="path2182_1_" sodipodi:nodetypes="ccccc" fill="#81EAEA" stroke="#256B67" stroke-linejoin="round" d="M43.514,0.001
		C40.008,4.92,27.678,5.998,15.5,7.143V46c11.6-1.006,23.795-1.732,28.012-6.174V0.001H43.514z"/>
</g>
<g id="layer2_2_" inkscape:label="lights" inkscape:groupmode="layer">
	
		<radialGradient id="path2252_1_" cx="167.6729" cy="274.3252" r="13.0261" gradientTransform="matrix(2.4523 0 0 3.1216 -387.3881 -840.3905)" gradientUnits="userSpaceOnUse">
		<stop  offset="0" style="stop-color:#000000;stop-opacity:0"/>
		<stop  offset="0.47" style="stop-color:#000000;stop-opacity:0.1647"/>
		<stop  offset="1" style="stop-color:#000000;stop-opacity:0.6667"/>
	</radialGradient>
	<path id="path2252_2_" sodipodi:nodetypes="ccccc" fill="url(#path2252_1_)" d="M43,1.5c-4.559,3.66-15.264,5.104-27,6.305V45.5
		c11.18-0.975,22.938-1.68,27-5.986V1.5z"/>
	
		<radialGradient id="path1364_2_" cx="491.6523" cy="486.666" r="13.0266" gradientTransform="matrix(1 0 0 1.6928 -467 -810.0775)" gradientUnits="userSpaceOnUse">
		<stop  offset="0" style="stop-color:#FFFFFF;stop-opacity:0.3004"/>
		<stop  offset="1" style="stop-color:#FFFFFF;stop-opacity:0"/>
	</radialGradient>
	<path id="path1364_1_" sodipodi:nodetypes="ccccc" fill="url(#path1364_2_)" d="M42.555,1.989
		C38.156,6.152,27.824,6.896,16.5,8.057v36.967c10.788-0.94,22.133-1.621,26.055-5.776V1.989z"/>
	
		<linearGradient id="path2204_2_" gradientUnits="userSpaceOnUse" x1="493.2578" y1="799.8984" x2="499.7576" y2="832.9231" gradientTransform="matrix(1 0 0 1 -467 -793)">
		<stop  offset="0" style="stop-color:#FFFFFF;stop-opacity:0.7098"/>
		<stop  offset="1" style="stop-color:#FFFFFF;stop-opacity:0.1073"/>
	</linearGradient>
	<path id="path2204_1_" sodipodi:nodetypes="ccccc" fill="none" stroke="url(#path2204_2_)" stroke-linejoin="round" d="
		M42.555,1.989C38.156,6.152,27.824,6.896,16.5,8.057v36.967c10.788-0.94,22.133-1.621,26.055-5.776V1.989z"/>
	
		<radialGradient id="rect1371_1_" cx="222.0127" cy="-308.7446" r="11.0002" gradientTransform="matrix(1.1705 0 0 -1.0641 -231.5393 -303.5898)" gradientUnits="userSpaceOnUse">
		<stop  offset="0" style="stop-color:#FFFFFF"/>
		<stop  offset="1" style="stop-color:#FFFFFF;stop-opacity:0"/>
	</radialGradient>
	<path id="rect1371" sodipodi:nodetypes="cccccccccccc" opacity="0.7619" fill="url(#rect1371_1_)" enable-background="new    " d="
		M30.217,18.445L19.329,29.812l5.031-0.922v9.555c1.4-0.053,3.338-0.484,4.975-1.016V30.24l5.004-0.922v7.166
		c1.083-0.289,1.555-0.561,1.994-1.031v-8.771l4.996-0.955L30.217,18.445z"/>
</g>
</svg>
