<?xml version="1.0" encoding="utf-8"?>
<!-- Generator: Adobe Illustrator 16.0.3, SVG Export Plug-In . SVG Version: 6.00 Build 0)  -->
<!DOCTYPE svg PUBLIC "-//W3C//DTD SVG 1.1//EN" "http://www.w3.org/Graphics/SVG/1.1/DTD/svg11.dtd">
<svg version="1.1"
	 id="svg2" xmlns:sodipodi="http://inkscape.sourceforge.net/DTD/sodipodi-0.dtd" xmlns:dc="http://purl.org/dc/elements/1.1/" xmlns:svg="http://www.w3.org/2000/svg" xmlns:inkscape="http://www.inkscape.org/namespaces/inkscape" xmlns:cc="http://web.resource.org/cc/" xmlns:rdf="http://www.w3.org/1999/02/22-rdf-syntax-ns#" inkscape:export-ydpi="90" inkscape:export-xdpi="90" inkscape:version="0.43" inkscape:export-filename="/home/silvestre/Gion/folder-remote.png" sodipodi:version="0.32" sodipodi:docname="folder-remote.svg" sodipodi:docbase="/home/silvestre/Desktop/Gion"
	 xmlns="http://www.w3.org/2000/svg" xmlns:xlink="http://www.w3.org/1999/xlink" x="0px" y="0px" width="48px" height="48px"
	 viewBox="0 0 48 48" enable-background="new 0 0 48 48" xml:space="preserve">
<sodipodi:namedview  inkscape:zoom="1" inkscape:cy="23.323877" borderopacity="1.0" inkscape:cx="44.733541" showborder="false" id="base" showgrid="false" pagecolor="#ffffff" bordercolor="#666666" inkscape:pageshadow="2" inkscape:pageopacity="0.0" showguides="true" inkscape:guide-bbox="true" inkscape:showpageshadow="false" inkscape:window-y="67" inkscape:window-x="12" inkscape:window-height="582" inkscape:window-width="889" inkscape:document-units="px" inkscape:grid-bbox="true" inkscape:current-layer="layer4">
	</sodipodi:namedview>
<g id="layer1" inkscape:label="back-folder" inkscape:groupmode="layer" sodipodi:insensitive="true">
	
		<radialGradient id="path1336_1_" cx="300.9854" cy="-1425.6094" r="22.5044" fx="295.4754" fy="-1420.3484" gradientTransform="matrix(0.864 0 0 -0.2697 -240.6184 -344.5418)" gradientUnits="userSpaceOnUse">
		<stop  offset="0" style="stop-color:#000000"/>
		<stop  offset="1" style="stop-color:#000000;stop-opacity:0"/>
	</radialGradient>
	
		<path id="path1336" sodipodi:type="arc" sodipodi:cx="24.523569" sodipodi:rx="22.501007" sodipodi:ry="3.9187145" sodipodi:cy="43.954876" opacity="0.7792" fill="url(#path1336_1_)" enable-background="new    " d="
		M38.883,39.944c0.004,3.352-8.698,6.069-19.436,6.07S0.003,43.299,0,39.947c0,0,0-0.002,0-0.003
		c-0.003-3.352,8.699-6.069,19.436-6.07c10.738-0.001,19.444,2.716,19.447,6.067C38.883,39.941,38.883,39.943,38.883,39.944z"/>
	
		<linearGradient id="path1307_1_" gradientUnits="userSpaceOnUse" x1="291.2197" y1="-360.9263" x2="277.3818" y2="-360.9263" gradientTransform="matrix(0.9213 0 0 -0.9287 -242.8632 -313.2033)">
		<stop  offset="0" style="stop-color:#898989"/>
		<stop  offset="1" style="stop-color:#B2B2B2"/>
	</linearGradient>
	
		<path id="path1307" sodipodi:nodetypes="ccccccc" fill="url(#path1307_1_)" stroke="#566668" stroke-width="1" stroke-linejoin="round" d="
		M37.507,2.498C30.39,3.83,15.968,4.623,5.268,4.348v23.224H2.498v13.876c12.729,0.129,25.454,0.255,35.009-2.246V2.498z"/>
	
		<linearGradient id="path2236_1_" gradientUnits="userSpaceOnUse" x1="278.0537" y1="-361.7026" x2="269.7903" y2="-361.7026" gradientTransform="matrix(0.9255 0 0 -0.9336 -242.8987 -312.6761)">
		<stop  offset="0" style="stop-color:#000000;stop-opacity:0.6824"/>
		<stop  offset="1" style="stop-color:#000000;stop-opacity:0"/>
	</linearGradient>
	<path id="path2236" sodipodi:nodetypes="ccccccsscc" fill="url(#path2236_1_)" d="M35.48,4C32.127,8.593,18.14,9.612,6.492,10.681
		v31.597c0.008,0,0.03,0,0.03,0l4.975,3.755l20.784-3.755c0.151,0,0.308,0.028,0.448,0.059c0.016,0.003,0.015-0.004,0.03,0
		c0.559-0.354,1.056-0.746,1.466-1.167L35.48,4z"/>
	
		<linearGradient id="rect2194_1_" gradientUnits="userSpaceOnUse" x1="174.8418" y1="-342.4688" x2="175.9876" y2="-342.4688" gradientTransform="matrix(1.3333 0 0 -1 -227.6488 -308)">
		<stop  offset="0.0041" style="stop-color:#E01C00"/>
		<stop  offset="1" style="stop-color:#FF2C17;stop-opacity:0"/>
	</linearGradient>
	
		<rect id="rect2194_3_" x="3" y="27.938" opacity="0.5801" fill="url(#rect2194_1_)" enable-background="new    " width="4" height="13.062"/>
	
		<linearGradient id="path2231_1_" gradientUnits="userSpaceOnUse" x1="283.5684" y1="-340.3486" x2="287.9927" y2="-376.1685" gradientTransform="matrix(0.9187 0 0 -0.928 -242.8481 -313.3169)">
		<stop  offset="0" style="stop-color:#FFFFFF;stop-opacity:0.8485"/>
		<stop  offset="1" style="stop-color:#FFFFFF;stop-opacity:0.3232"/>
	</linearGradient>
	
		<path id="path2231" sodipodi:nodetypes="ccccccc" fill="none" stroke="url(#path2231_1_)" stroke-width="1" stroke-linejoin="round" d="
		M36.607,3.497C29.876,4.766,16.383,5.476,6.264,5.214v23.223H3.497v12.015c12.039,0.123,24.072,0.242,33.111-2.139V3.497z"/>
	<g id="g3118" transform="matrix(0.925454,0,0,0.933617,-2.769367,1.199148)" opacity="0.1861">
		
			<linearGradient id="path3092_1_" gradientUnits="userSpaceOnUse" x1="291.2642" y1="-367.2827" x2="288.5454" y2="-367.2827" gradientTransform="matrix(0.9255 0 0 -0.9336 -258.2599 -337.392)">
			<stop  offset="0" style="stop-color:#636363"/>
			<stop  offset="1" style="stop-color:#636363;stop-opacity:0"/>
		</linearGradient>
		<path id="path3092" sodipodi:nodetypes="cc" fill="none" stroke="url(#path3092_1_)" stroke-width="1.0758" d="M9.515,6.466
			c15.061,0.178,25.107-0.751,33.977-1.94"/>
		
			<linearGradient id="path3096_1_" gradientUnits="userSpaceOnUse" x1="291.2653" y1="-370.4667" x2="288.5466" y2="-370.4667" gradientTransform="matrix(0.9255 0 0 -0.9336 -258.2599 -337.392)">
			<stop  offset="0" style="stop-color:#636363"/>
			<stop  offset="1" style="stop-color:#636363;stop-opacity:0"/>
		</linearGradient>
		<path id="path3096" sodipodi:nodetypes="cc" fill="none" stroke="url(#path3096_1_)" stroke-width="1.0758" d="M9.5,9.44
			C24.561,9.618,34.607,8.689,43.477,7.5"/>
		
			<linearGradient id="path3098_1_" gradientUnits="userSpaceOnUse" x1="291.2653" y1="-373.68" x2="288.5466" y2="-373.68" gradientTransform="matrix(0.9255 0 0 -0.9336 -258.2599 -337.392)">
			<stop  offset="0" style="stop-color:#636363"/>
			<stop  offset="1" style="stop-color:#636363;stop-opacity:0"/>
		</linearGradient>
		<path id="path3098" sodipodi:nodetypes="cc" fill="none" stroke="url(#path3098_1_)" stroke-width="1.0758" d="M9.515,12.44
			c15.061,0.178,25.107-0.751,33.977-1.94"/>
		
			<linearGradient id="path3100_1_" gradientUnits="userSpaceOnUse" x1="291.2653" y1="-376.8933" x2="288.5466" y2="-376.8933" gradientTransform="matrix(0.9255 0 0 -0.9336 -258.2599 -337.392)">
			<stop  offset="0" style="stop-color:#636363"/>
			<stop  offset="1" style="stop-color:#636363;stop-opacity:0"/>
		</linearGradient>
		<path id="path3100" sodipodi:nodetypes="cc" fill="none" stroke="url(#path3100_1_)" stroke-width="1.0758" d="M9.515,15.44
			c15.061,0.178,25.107-0.751,33.977-1.94"/>
		
			<linearGradient id="path3102_1_" gradientUnits="userSpaceOnUse" x1="291.2653" y1="-380.1071" x2="288.5466" y2="-380.1071" gradientTransform="matrix(0.9255 0 0 -0.9336 -258.2599 -337.392)">
			<stop  offset="0" style="stop-color:#636363"/>
			<stop  offset="1" style="stop-color:#636363;stop-opacity:0"/>
		</linearGradient>
		<path id="path3102" sodipodi:nodetypes="cc" fill="none" stroke="url(#path3102_1_)" stroke-width="1.0758" d="M9.515,18.44
			c15.061,0.178,25.107-0.751,33.977-1.94"/>
		
			<linearGradient id="path3104_1_" gradientUnits="userSpaceOnUse" x1="291.2642" y1="-383.321" x2="288.5454" y2="-383.321" gradientTransform="matrix(0.9255 0 0 -0.9336 -258.2599 -337.392)">
			<stop  offset="0" style="stop-color:#636363"/>
			<stop  offset="1" style="stop-color:#636363;stop-opacity:0"/>
		</linearGradient>
		<path id="path3104" sodipodi:nodetypes="cc" fill="none" stroke="url(#path3104_1_)" stroke-width="1.0758" d="M9.515,21.44
			c15.061,0.178,25.107-0.751,33.977-1.94"/>
		
			<linearGradient id="path3106_1_" gradientUnits="userSpaceOnUse" x1="291.2642" y1="-386.575" x2="288.5454" y2="-386.575" gradientTransform="matrix(0.9255 0 0 -0.9336 -258.2599 -337.392)">
			<stop  offset="0" style="stop-color:#636363"/>
			<stop  offset="1" style="stop-color:#636363;stop-opacity:0"/>
		</linearGradient>
		<path id="path3106" sodipodi:nodetypes="cc" fill="none" stroke="url(#path3106_1_)" stroke-width="1.0758" d="M9.515,24.478
			c15.061,0.178,25.107-0.751,33.977-1.94"/>
		
			<linearGradient id="path3108_1_" gradientUnits="userSpaceOnUse" x1="291.2653" y1="-389.7873" x2="288.5466" y2="-389.7873" gradientTransform="matrix(0.9255 0 0 -0.9336 -258.2599 -337.392)">
			<stop  offset="0" style="stop-color:#636363"/>
			<stop  offset="1" style="stop-color:#636363;stop-opacity:0"/>
		</linearGradient>
		<path id="path3108" sodipodi:nodetypes="cc" fill="none" stroke="url(#path3108_1_)" stroke-width="1.0758" d="M9.515,27.478
			c15.061,0.178,25.107-0.751,33.977-1.94"/>
		
			<linearGradient id="path3110_1_" gradientUnits="userSpaceOnUse" x1="291.2653" y1="-393.4556" x2="288.5465" y2="-393.4556" gradientTransform="matrix(0.9255 0 0 -0.9336 -258.2599 -337.392)">
			<stop  offset="0" style="stop-color:#636363"/>
			<stop  offset="1" style="stop-color:#636363;stop-opacity:0"/>
		</linearGradient>
		<path id="path3110" sodipodi:nodetypes="cc" fill="none" stroke="url(#path3110_1_)" stroke-width="1.0758" d="M5.508,30.903
			c16.811,0.179,28.026-0.751,37.927-1.939"/>
		
			<linearGradient id="path3112_1_" gradientUnits="userSpaceOnUse" x1="291.2642" y1="-396.2139" x2="288.5455" y2="-396.2139" gradientTransform="matrix(0.9255 0 0 -0.9336 -258.2599 -337.392)">
			<stop  offset="0" style="stop-color:#636363"/>
			<stop  offset="1" style="stop-color:#636363;stop-opacity:0"/>
		</linearGradient>
		<path id="path3112" sodipodi:nodetypes="cc" fill="none" stroke="url(#path3112_1_)" stroke-width="1.0758" d="M5.557,33.478
			c16.79,0.178,27.989-0.751,37.878-1.94"/>
		
			<linearGradient id="path3114_1_" gradientUnits="userSpaceOnUse" x1="291.2653" y1="-399.387" x2="288.5465" y2="-399.387" gradientTransform="matrix(0.9255 0 0 -0.9336 -258.2599 -337.392)">
			<stop  offset="0" style="stop-color:#636363"/>
			<stop  offset="1" style="stop-color:#636363;stop-opacity:0"/>
		</linearGradient>
		<path id="path3114" sodipodi:nodetypes="cc" fill="none" stroke="url(#path3114_1_)" stroke-width="1.0758" d="M5.557,36.441
			c16.79,0.178,27.989-0.751,37.878-1.94"/>
		
			<linearGradient id="path3094_1_" gradientUnits="userSpaceOnUse" x1="291.2653" y1="-402.5998" x2="288.5465" y2="-402.5998" gradientTransform="matrix(0.9255 0 0 -0.9336 -258.2599 -337.392)">
			<stop  offset="0" style="stop-color:#636363"/>
			<stop  offset="1" style="stop-color:#636363;stop-opacity:0"/>
		</linearGradient>
		<path id="path3094" sodipodi:nodetypes="cc" fill="none" stroke="url(#path3094_1_)" stroke-width="1.0758" d="M5.557,39.441
			c16.79,0.178,27.989-0.751,37.878-1.94"/>
	</g>
	<g id="g3126" transform="translate(-2.992441,4)">
		<path id="text3112" d="M10.43,51.031v6.062h1.375v-6.062H10.43z M16.149,51.031v2.344c-0.193-0.256-0.422-0.443-0.656-0.562
			c-0.232-0.123-0.479-0.188-0.781-0.188c-0.539,0-0.998,0.227-1.344,0.656c-0.346,0.428-0.5,0.951-0.5,1.625s0.154,1.227,0.5,1.656
			c0.346,0.428,0.805,0.656,1.344,0.656c0.305,0,0.549-0.068,0.781-0.188s0.463-0.305,0.656-0.562v0.625h1.406v-6.062H16.149z
			 M-0.476,51.281v5.812h1.5v-2.469H3.43V53.5H1.024v-1.094h2.531v-1.125H-0.476z M54.774,51.469v1.219h-0.688v1h0.688v1.875
			c0,0.535,0.129,0.922,0.344,1.156c0.232,0.229,0.635,0.344,1.188,0.344h1.188v-1h-0.719c-0.18,0-0.316-0.023-0.406-0.062
			c-0.021-0.011-0.047-0.018-0.062-0.031c-0.07-0.076-0.125-0.216-0.125-0.406v-1.875h1.438v-1H56.18v-1.219H54.774z M34.055,52.594
			c-0.227,0.025-0.449,0.088-0.625,0.188c-0.232,0.131-0.445,0.338-0.625,0.625v-0.719H31.43v4.375h1.375v-2
			c0-0.322,0.079-0.604,0.188-0.812c0.033-0.06,0.083-0.137,0.125-0.188c0.013-0.014,0.049-0.049,0.062-0.062
			c0.014-0.013,0.049-0.051,0.062-0.062c0.043-0.034,0.107-0.068,0.156-0.094c0.15-0.073,0.329-0.125,0.531-0.125
			c0.123,0,0.256,0.002,0.375,0.031c0.123,0.025,0.252,0.068,0.375,0.125v-1.25c-0.104-0.014-0.195-0.029-0.25-0.031
			c-0.055-0.006-0.109,0-0.156,0C34.192,52.594,34.131,52.586,34.055,52.594z M37.117,52.594c-0.595,0.054-1.072,0.28-1.438,0.625
			c-0.43,0.408-0.625,0.943-0.625,1.656c0,0.727,0.219,1.314,0.656,1.719c0.439,0.4,1.053,0.594,1.844,0.594
			c0.33,0,0.67-0.029,1-0.094c0.33-0.062,0.639-0.156,0.969-0.281v-1.094c-0.326,0.178-0.627,0.318-0.938,0.406
			c-0.307,0.086-0.611,0.125-0.906,0.125c-0.182,0-0.357-0.021-0.5-0.062c-0.035-0.011-0.093-0.018-0.125-0.031
			c-0.023-0.011-0.071-0.051-0.094-0.062c-0.015-0.008-0.049-0.022-0.062-0.031c-0.021-0.014-0.043-0.047-0.062-0.062
			c-0.025-0.021-0.07-0.039-0.094-0.062c-0.006-0.006-0.025-0.025-0.031-0.031c-0.041-0.05-0.094-0.127-0.125-0.188
			c-0.041-0.084-0.073-0.209-0.094-0.312c-0.007-0.039-0.027-0.084-0.031-0.125h3.281v-0.406c0-0.693-0.211-1.242-0.625-1.656
			c-0.412-0.414-0.969-0.625-1.656-0.625C37.343,52.594,37.228,52.584,37.117,52.594z M43.336,52.594
			c-0.193,0.023-0.363,0.094-0.531,0.188c-0.221,0.125-0.422,0.314-0.594,0.562v-0.656h-1.406v4.375h1.406v-2.125
			c0-0.371,0.068-0.691,0.188-0.906c0.009-0.015,0.021-0.049,0.031-0.062c0.047-0.066,0.129-0.143,0.188-0.188
			c0.006-0.004,0.025-0.027,0.031-0.031c0.025-0.016,0.066-0.02,0.094-0.031c0.014-0.006,0.049-0.026,0.062-0.031
			c0.021-0.006,0.071-0.027,0.094-0.031c0.023-0.004,0.07,0.002,0.094,0c0.016-0.001,0.046,0,0.062,0
			c0.08,0,0.157,0.012,0.219,0.031c0.005,0.002,0.026-0.002,0.031,0c0.01,0.004,0.022,0.026,0.031,0.031
			c0.004,0.002,0.027-0.002,0.031,0c0.004,0.003,0.027,0.028,0.031,0.031s0.027,0.027,0.031,0.031s0.027,0.027,0.031,0.031
			c0.003,0.004,0.028,0.027,0.031,0.031s-0.002,0.027,0,0.031c0.005,0.01,0.026,0.021,0.031,0.031
			c0.064,0.158,0.094,0.451,0.094,0.875v2.281h1.406v-2.125c0.004-0.259,0.037-0.505,0.094-0.688
			c0.012-0.035,0.049-0.092,0.062-0.125c0.012-0.023,0.02-0.071,0.031-0.094c0.008-0.015,0.022-0.049,0.031-0.062
			c0.014-0.021,0.048-0.044,0.062-0.062c0.005-0.006,0.025-0.025,0.031-0.031s0.025-0.025,0.031-0.031
			c0.006-0.005,0.025-0.026,0.031-0.031s0.025-0.027,0.031-0.031s0.025-0.027,0.031-0.031c0.012-0.008,0.05-0.024,0.062-0.031
			c0.014-0.006,0.049-0.025,0.062-0.031c0.014-0.005,0.049,0.004,0.062,0c0.015-0.004,0.047-0.028,0.062-0.031
			c0.023-0.004,0.07,0.002,0.094,0c0.016-0.001,0.046,0,0.062,0c0.089,0,0.183,0.004,0.25,0.031
			c0.004,0.002,0.027,0.029,0.031,0.031s0.027-0.002,0.031,0c0.008,0.006,0.023,0.025,0.031,0.031
			c0.004,0.003,0.027,0.027,0.031,0.031s0.027,0.027,0.031,0.031c0.003,0.004,0.028,0.027,0.031,0.031s-0.003,0.027,0,0.031
			c0.092,0.139,0.125,0.346,0.125,0.656c0,0.068,0.002,0.119,0,0.156c0,0.027,0.002,0.068,0,0.094v2.281h1.406v-2.656
			c0-0.592-0.111-1.033-0.375-1.344s-0.654-0.469-1.156-0.469c-0.291,0-0.568,0.076-0.812,0.219
			c-0.242,0.141-0.447,0.354-0.625,0.625c-0.119-0.264-0.299-0.479-0.531-0.625s-0.479-0.219-0.781-0.219
			C43.489,52.594,43.401,52.586,43.336,52.594z M50.899,52.594c-0.594,0.054-1.077,0.251-1.438,0.594
			c-0.424,0.406-0.625,0.969-0.625,1.688s0.201,1.281,0.625,1.688c0.428,0.406,1.025,0.625,1.781,0.625
			c0.752,0,1.328-0.219,1.75-0.625c0.424-0.406,0.656-0.969,0.656-1.688s-0.232-1.281-0.656-1.688
			c-0.422-0.406-0.998-0.594-1.75-0.594C51.124,52.594,51.008,52.584,50.899,52.594z M60.242,52.594
			c-0.595,0.054-1.072,0.28-1.438,0.625c-0.43,0.408-0.656,0.943-0.656,1.656c0,0.727,0.219,1.314,0.656,1.719
			c0.439,0.4,1.053,0.594,1.844,0.594c0.33,0,0.67-0.029,1-0.094c0.33-0.062,0.67-0.156,1-0.281v-1.094
			c-0.326,0.178-0.658,0.318-0.969,0.406c-0.307,0.086-0.58,0.125-0.875,0.125c-0.137,0-0.292-0.008-0.406-0.031
			c-0.057-0.013-0.137-0.045-0.188-0.062c-0.025-0.01-0.07-0.02-0.094-0.031c-0.046-0.023-0.116-0.064-0.156-0.094
			c-0.006-0.005-0.025-0.026-0.031-0.031c-0.049-0.043-0.117-0.104-0.156-0.156c-0.01-0.014-0.022-0.049-0.031-0.062
			c-0.008-0.015-0.023-0.047-0.031-0.062c-0.015-0.031-0.051-0.092-0.062-0.125c-0.031-0.094-0.051-0.199-0.062-0.312h3.281v-0.406
			c0-0.693-0.211-1.242-0.625-1.656c-0.412-0.414-0.969-0.625-1.656-0.625C60.468,52.594,60.353,52.584,60.242,52.594z
			 M6.649,52.625c-0.594,0.054-1.077,0.251-1.438,0.594c-0.424,0.406-0.625,0.969-0.625,1.688s0.201,1.281,0.625,1.688
			C5.638,57,6.237,57.219,6.992,57.219c0.752,0,1.359-0.219,1.781-0.625c0.424-0.406,0.625-0.969,0.625-1.688
			s-0.201-1.281-0.625-1.688c-0.422-0.406-1.029-0.594-1.781-0.594C6.874,52.625,6.759,52.615,6.649,52.625z M20.649,52.625
			c-0.595,0.054-1.073,0.28-1.438,0.625c-0.43,0.408-0.625,0.943-0.625,1.656c0,0.727,0.219,1.314,0.656,1.719
			c0.44,0.4,1.052,0.594,1.844,0.594c0.331,0,0.638-0.029,0.969-0.094c0.331-0.062,0.669-0.156,1-0.281V55.75
			c-0.326,0.178-0.627,0.318-0.938,0.406c-0.307,0.086-0.612,0.125-0.906,0.125c-0.194,0-0.383-0.016-0.531-0.062
			c-0.034-0.012-0.093-0.049-0.125-0.062c-0.023-0.012-0.072-0.019-0.094-0.031c-0.036-0.021-0.062-0.068-0.094-0.094
			c-0.013-0.01-0.05-0.021-0.062-0.031c-0.006-0.006-0.025-0.025-0.031-0.031c-0.039-0.041-0.094-0.107-0.125-0.156
			c-0.063-0.108-0.099-0.262-0.125-0.406c-0.005-0.029-0.028-0.062-0.031-0.094h3.281v-0.406c0-0.693-0.211-1.242-0.625-1.656
			c-0.412-0.414-0.969-0.625-1.656-0.625C20.874,52.625,20.759,52.615,20.649,52.625z M26.961,52.625
			c-0.227,0.025-0.418,0.088-0.594,0.188c-0.232,0.131-0.445,0.338-0.625,0.625v-0.719h-1.406v4.375h1.406v-2
			c0-0.43,0.088-0.771,0.281-1c0.006-0.008,0.025-0.024,0.031-0.031c0.051-0.055,0.126-0.116,0.188-0.156
			c0.031-0.02,0.091-0.047,0.125-0.062c0.139-0.059,0.32-0.094,0.5-0.094c0.123,0,0.224,0.002,0.344,0.031
			c0.123,0.025,0.252,0.068,0.375,0.125v-1.25c-0.104-0.014-0.195-0.029-0.25-0.031c-0.055-0.006-0.109,0-0.156,0
			C27.098,52.625,27.037,52.617,26.961,52.625z M37.211,53.531c0.074-0.016,0.166,0,0.25,0c0.039,0,0.088-0.004,0.125,0
			c0.036,0.005,0.092,0.022,0.125,0.031c0.014,0.004,0.049-0.004,0.062,0c0.013,0.005,0.051,0.025,0.062,0.031
			c0.006,0.003,0.025,0.028,0.031,0.031c0.006,0.004,0.025-0.004,0.031,0c0.023,0.014,0.072,0.046,0.094,0.062
			c0.006,0.004,0.025,0.027,0.031,0.031c0.005,0.005,0.026,0.026,0.031,0.031s-0.005,0.026,0,0.031
			c0.029,0.03,0.07,0.06,0.094,0.094c0.004,0.006,0.027,0.025,0.031,0.031c0.007,0.012,0.025,0.051,0.031,0.062
			c0.012,0.025,0.021,0.066,0.031,0.094c0.004,0.014,0.027,0.049,0.031,0.062s-0.003,0.048,0,0.062
			c0.012,0.066,0.031,0.145,0.031,0.219h-1.812c0.018-0.125,0.051-0.244,0.094-0.344c0.006-0.014,0.024-0.049,0.031-0.062
			c0.008-0.014,0.023-0.05,0.031-0.062c0.004-0.006,0.027-0.025,0.031-0.031c0.029-0.041,0.059-0.09,0.094-0.125
			c0.006-0.005,0.025-0.026,0.031-0.031c0.026-0.023,0.064-0.042,0.094-0.062c0.006-0.004,0.025-0.027,0.031-0.031
			c0.012-0.008,0.05-0.024,0.062-0.031c0.025-0.013,0.066-0.021,0.094-0.031c0.014-0.005,0.049-0.027,0.062-0.031
			C37.17,53.557,37.189,53.535,37.211,53.531z M60.336,53.531c0.074-0.016,0.166,0,0.25,0c0.031,0,0.064-0.002,0.094,0
			c0.015,0.002,0.049-0.002,0.062,0s0.049,0.027,0.062,0.031s0.049-0.004,0.062,0c0.039,0.014,0.09,0.043,0.125,0.062
			c0.023,0.014,0.072,0.047,0.094,0.062c0.032,0.025,0.064,0.062,0.094,0.094c0.005,0.006,0.027,0.025,0.031,0.031
			s0.027,0.025,0.031,0.031s0.027,0.025,0.031,0.031c0.023,0.035,0.045,0.087,0.062,0.125c0.006,0.013,0.026,0.049,0.031,0.062
			c0.004,0.014-0.004,0.049,0,0.062s0.028,0.048,0.031,0.062c0.012,0.066,0.031,0.145,0.031,0.219h-1.844
			c0.029-0.197,0.099-0.367,0.188-0.5c0.004-0.006,0.027-0.025,0.031-0.031s0.027-0.025,0.031-0.031
			c0.005-0.006,0.026-0.025,0.031-0.031c0.005-0.005,0.026-0.026,0.031-0.031c0.006-0.005,0.025-0.026,0.031-0.031
			s0.025-0.027,0.031-0.031s0.025-0.027,0.031-0.031c0.018-0.012,0.045-0.021,0.062-0.031c0.012-0.007,0.05-0.025,0.062-0.031
			c0.014-0.006,0.049-0.025,0.062-0.031c0.014-0.005,0.049-0.027,0.062-0.031s0.048,0.004,0.062,0
			C60.313,53.561,60.328,53.533,60.336,53.531z M20.742,53.563c0.075-0.016,0.166,0,0.25,0c0.039,0,0.088-0.004,0.125,0
			c0.015,0.002,0.048-0.002,0.062,0c0.014,0.003,0.049,0.027,0.062,0.031c0.013,0.004,0.049-0.004,0.062,0
			c0.006,0.002,0.025,0.029,0.031,0.031c0.025,0.011,0.07,0.018,0.094,0.031c0.006,0.004,0.025,0.027,0.031,0.031
			c0.044,0.031,0.086,0.084,0.125,0.125c0.005,0.005,0.026-0.006,0.031,0c0.009,0.011,0.022,0.052,0.031,0.062
			c0.004,0.006,0.027,0.025,0.031,0.031s0.027,0.025,0.031,0.031c0.014,0.023,0.02,0.068,0.031,0.094
			c0.005,0.013,0.026,0.049,0.031,0.062c0.011,0.033,0.023,0.088,0.031,0.125c0.012,0.066,0.031,0.145,0.031,0.219h-1.812
			c0.018-0.125,0.051-0.244,0.094-0.344c0.006-0.014,0.024-0.049,0.031-0.062c0.007-0.014,0.023-0.05,0.031-0.062
			c0.016-0.025,0.045-0.071,0.062-0.094c0.027-0.033,0.062-0.065,0.094-0.094c0.005-0.005,0.026-0.027,0.031-0.031
			s0.025-0.027,0.031-0.031c0.012-0.008,0.051-0.023,0.062-0.031c0.006-0.004,0.025-0.027,0.031-0.031
			c0.025-0.014,0.067-0.021,0.094-0.031c0.014-0.005,0.048-0.027,0.062-0.031C20.677,53.586,20.713,53.568,20.742,53.563z
			 M51.086,53.594c0.045-0.006,0.107,0,0.156,0c0.028,0,0.066-0.002,0.094,0c0.045,0.004,0.115,0.021,0.156,0.031
			c0.024,0.006,0.07,0.022,0.094,0.031c0.016,0.006,0.048,0.024,0.062,0.031c0.014,0.008,0.049,0.023,0.062,0.031
			c0.033,0.021,0.095,0.066,0.125,0.094c0.006,0.006,0.025,0.025,0.031,0.031s0.025,0.025,0.031,0.031
			c0.011,0.014,0.021,0.049,0.031,0.062c0.02,0.027,0.045,0.062,0.062,0.094c0.013,0.023,0.051,0.068,0.062,0.094
			c0.084,0.199,0.125,0.449,0.125,0.75s-0.041,0.581-0.125,0.781c-0.016,0.034-0.045,0.094-0.062,0.125
			c-0.014,0.022-0.047,0.041-0.062,0.062c-0.01,0.014-0.021,0.049-0.031,0.062c-0.006,0.006-0.025,0.025-0.031,0.031
			c-0.023,0.023-0.068,0.074-0.094,0.094c-0.013,0.01-0.049,0.022-0.062,0.031c-0.014,0.008-0.049,0.023-0.062,0.031
			c-0.015,0.007-0.047,0.025-0.062,0.031c-0.023,0.008-0.069,0.025-0.094,0.031c-0.041,0.01-0.111,0.027-0.156,0.031
			c-0.027,0.002-0.065,0-0.094,0c-0.049,0-0.111,0.006-0.156,0c-0.044-0.006-0.115-0.02-0.156-0.031
			c-0.072-0.023-0.158-0.084-0.219-0.125c-0.014-0.01-0.05-0.021-0.062-0.031c-0.043-0.038-0.089-0.107-0.125-0.156
			c-0.151-0.223-0.25-0.562-0.25-0.969c0-0.354,0.072-0.631,0.188-0.844c0.014-0.023,0.048-0.072,0.062-0.094
			c0.051-0.07,0.122-0.139,0.188-0.188C50.812,53.682,50.953,53.613,51.086,53.594z M6.805,53.625c0.026-0.004,0.066,0.002,0.094,0
			c0.028-0.002,0.064,0,0.094,0c0.048,0,0.112-0.006,0.156,0c0.035,0.006,0.092,0.022,0.125,0.031
			c0.024,0.008,0.071,0.021,0.094,0.031c0.015,0.006,0.048,0.023,0.062,0.031c0.098,0.055,0.21,0.152,0.281,0.25
			c0.01,0.014,0.022,0.047,0.031,0.062c0.018,0.031,0.047,0.092,0.062,0.125c0.083,0.199,0.125,0.449,0.125,0.75
			c0,0.406-0.067,0.746-0.219,0.969c-0.03,0.041-0.09,0.092-0.125,0.125c-0.006,0.006-0.025,0.025-0.031,0.031
			c-0.032,0.025-0.09,0.074-0.125,0.094c-0.014,0.008-0.048,0.025-0.062,0.031c-0.022,0.01-0.07,0.023-0.094,0.031
			c-0.033,0.009-0.09,0.025-0.125,0.031c-0.044,0.006-0.108,0-0.156,0c-0.029,0-0.066,0.002-0.094,0
			c-0.045-0.004-0.114-0.021-0.156-0.031c-0.033-0.009-0.094-0.02-0.125-0.031c-0.015-0.006-0.048-0.023-0.062-0.031
			c-0.036-0.02-0.093-0.068-0.125-0.094C6.424,56.025,6.405,56.006,6.399,56c-0.036-0.033-0.094-0.084-0.125-0.125
			c-0.151-0.223-0.219-0.562-0.219-0.969c0-0.301,0.042-0.551,0.125-0.75c0.015-0.033,0.045-0.094,0.062-0.125
			c0.009-0.016,0.021-0.049,0.031-0.062c0.072-0.098,0.182-0.195,0.281-0.25c0.015-0.008,0.047-0.025,0.062-0.031
			c0.031-0.012,0.092-0.022,0.125-0.031C6.759,53.652,6.787,53.628,6.805,53.625z M15.149,53.625c0.009,0,0.022,0,0.031,0
			c0.009,0,0.022,0,0.031,0c0.047,0,0.113,0.025,0.156,0.031c0.162,0.024,0.326,0.086,0.438,0.188
			c0.006,0.006,0.026,0.025,0.031,0.031c0.022,0.023,0.043,0.066,0.062,0.094c0.005,0.007,0.026,0.024,0.031,0.031
			c0.009,0.015,0.022,0.047,0.031,0.062c0.017,0.031,0.048,0.091,0.062,0.125c0.075,0.193,0.125,0.432,0.125,0.719
			c0,0.391-0.079,0.721-0.219,0.938c-0.005,0.007-0.026,0.024-0.031,0.031c-0.044,0.062-0.101,0.111-0.156,0.156
			c-0.006,0.005-0.025,0.027-0.031,0.031c-0.013,0.009-0.049,0.023-0.062,0.031c-0.014,0.008-0.048,0.025-0.062,0.031
			c-0.022,0.009-0.07,0.024-0.094,0.031c-0.032,0.009-0.091,0.026-0.125,0.031c-0.043,0.006-0.109,0-0.156,0
			c-0.009,0-0.022,0-0.031,0c-0.045-0.002-0.115,0.008-0.156,0c-0.024-0.005-0.07-0.024-0.094-0.031
			c-0.023-0.008-0.072-0.021-0.094-0.031c-0.014-0.007-0.049-0.023-0.062-0.031c-0.061-0.037-0.138-0.103-0.188-0.156
			c-0.005-0.006-0.026-0.025-0.031-0.031c-0.005-0.007-0.026-0.024-0.031-0.031s0.005-0.024,0-0.031
			c-0.014-0.021-0.05-0.07-0.062-0.094c-0.016-0.032-0.049-0.09-0.062-0.125c-0.067-0.188-0.094-0.445-0.094-0.719
			c0-0.391,0.082-0.689,0.219-0.906c0.005-0.007-0.005-0.024,0-0.031s0.026-0.024,0.031-0.031c0.021-0.025,0.071-0.071,0.094-0.094
			c0.006-0.006,0.025-0.026,0.031-0.031c0.006-0.005,0.025-0.026,0.031-0.031c0.013-0.009,0.049-0.023,0.062-0.031
			s0.048-0.024,0.062-0.031c0.022-0.01,0.071-0.023,0.094-0.031c0.023-0.007,0.069-0.026,0.094-0.031
			C15.057,53.65,15.113,53.627,15.149,53.625z"/>
		
			<path id="path3124" sodipodi:nodetypes="csssssssccssssssscccccccsccccsccccccccccsssssccsssssccsssssccssssscccccccccccccccccccccccccccsssccsssssssccsssccccsssssccsssssccsssssccssssscccccccsccccsccccccccsssccccccssscccccsssccsssssssccsssccccccccccccccccccsssccsssssssccssscccsssccccccssscccsssccccccssscccccsssccsssssssccssscccsssccccccssscccssssscccccccssssscccsssccsssc" fill="#646464" d="
			M2.67,62.134c0-0.528-0.109-0.942-0.328-1.242c-0.216-0.302-0.514-0.453-0.895-0.453s-0.68,0.151-0.898,0.453
			c-0.216,0.3-0.324,0.714-0.324,1.242s0.108,0.944,0.324,1.246c0.219,0.3,0.518,0.449,0.898,0.449s0.678-0.149,0.895-0.449
			C2.56,63.078,2.67,62.662,2.67,62.134 M0.224,60.606c0.151-0.261,0.341-0.453,0.57-0.578c0.232-0.128,0.508-0.191,0.828-0.191
			c0.531,0,0.962,0.211,1.293,0.633c0.333,0.422,0.5,0.977,0.5,1.664s-0.167,1.242-0.5,1.664c-0.331,0.422-0.762,0.633-1.293,0.633
			c-0.32,0-0.596-0.062-0.828-0.188c-0.229-0.128-0.419-0.321-0.57-0.582v0.656h-0.723v-6.078h0.723V60.606 M6.427,64.724
			c-0.203,0.521-0.401,0.86-0.594,1.02s-0.451,0.238-0.773,0.238H4.486V65.38h0.422c0.198,0,0.352-0.047,0.461-0.141
			s0.23-0.315,0.363-0.664l0.129-0.328l-1.77-4.305h0.762l1.367,3.422l1.367-3.422h0.762L6.427,64.724 M15.416,58.677v0.77
			c-0.299-0.144-0.582-0.25-0.848-0.32s-0.522-0.105-0.77-0.105c-0.43,0-0.762,0.083-0.996,0.25
			c-0.232,0.167-0.348,0.403-0.348,0.711c0,0.258,0.077,0.453,0.23,0.586c0.156,0.13,0.451,0.235,0.883,0.316l0.477,0.098
			c0.588,0.112,1.022,0.31,1.301,0.594c0.281,0.281,0.422,0.659,0.422,1.133c0,0.565-0.19,0.993-0.57,1.285
			c-0.377,0.292-0.932,0.438-1.664,0.438c-0.276,0-0.57-0.031-0.883-0.094c-0.31-0.062-0.631-0.155-0.965-0.277v-0.812
			c0.32,0.18,0.634,0.315,0.941,0.406s0.609,0.137,0.906,0.137c0.451,0,0.798-0.089,1.043-0.266s0.367-0.43,0.367-0.758
			c0-0.286-0.088-0.511-0.266-0.672c-0.174-0.161-0.462-0.282-0.863-0.363l-0.48-0.094c-0.588-0.117-1.014-0.301-1.277-0.551
			s-0.395-0.598-0.395-1.043c0-0.516,0.181-0.922,0.543-1.219c0.365-0.297,0.866-0.445,1.504-0.445c0.273,0,0.552,0.024,0.836,0.074
			S15.119,58.578,15.416,58.677 M16.982,59.942h0.719v4.375h-0.719V59.942 M16.982,58.239h0.719v0.91h-0.719V58.239 M19.201,58.239
			h0.719v6.078h-0.719V58.239 M20.904,59.942h0.762l1.367,3.672l1.367-3.672h0.762l-1.641,4.375h-0.977L20.904,59.942 M29.897,61.95
			v0.352h-3.305c0.031,0.495,0.18,0.872,0.445,1.133c0.268,0.258,0.641,0.387,1.118,0.387c0.275,0,0.543-0.034,0.801-0.102
			c0.26-0.067,0.518-0.169,0.773-0.305v0.68c-0.258,0.109-0.522,0.192-0.793,0.25c-0.271,0.058-0.546,0.086-0.824,0.086
			c-0.698,0-1.252-0.203-1.661-0.609c-0.406-0.406-0.609-0.956-0.609-1.648c0-0.716,0.193-1.284,0.578-1.703
			c0.388-0.422,0.91-0.633,1.567-0.633c0.588,0,1.053,0.19,1.395,0.57C29.725,60.785,29.897,61.299,29.897,61.95 M29.178,61.739
			c-0.006-0.394-0.116-0.707-0.332-0.941c-0.214-0.234-0.498-0.352-0.852-0.352c-0.401,0-0.723,0.113-0.965,0.34
			c-0.24,0.227-0.377,0.546-0.414,0.957L29.178,61.739 M33.85,60.071v0.68c-0.203-0.104-0.414-0.183-0.633-0.234
			s-0.445-0.078-0.68-0.078c-0.357,0-0.625,0.055-0.805,0.164c-0.178,0.109-0.266,0.273-0.266,0.492
			c0,0.167,0.063,0.298,0.191,0.395c0.127,0.094,0.384,0.184,0.77,0.27l0.246,0.055c0.51,0.109,0.872,0.265,1.086,0.465
			c0.216,0.198,0.324,0.476,0.324,0.832c0,0.406-0.162,0.728-0.484,0.965c-0.32,0.237-0.762,0.355-1.324,0.355
			c-0.234,0-0.479-0.023-0.734-0.07c-0.253-0.044-0.52-0.112-0.801-0.203v-0.742c0.266,0.138,0.527,0.242,0.785,0.312
			c0.258,0.067,0.513,0.102,0.766,0.102c0.338,0,0.599-0.058,0.781-0.172c0.182-0.117,0.273-0.281,0.273-0.492
			c0-0.195-0.066-0.345-0.199-0.449c-0.131-0.104-0.418-0.204-0.863-0.301l-0.25-0.059c-0.445-0.094-0.768-0.237-0.965-0.43
			c-0.198-0.195-0.297-0.462-0.297-0.801c0-0.411,0.146-0.729,0.438-0.953c0.291-0.224,0.705-0.336,1.242-0.336
			c0.266,0,0.516,0.02,0.75,0.059S33.652,59.993,33.85,60.071 M35.928,58.7v1.242h1.48v0.559h-1.48v2.375
			c0,0.356,0.048,0.586,0.145,0.688c0.099,0.102,0.298,0.152,0.598,0.152h0.738v0.602H36.67c-0.555,0-0.938-0.103-1.148-0.309
			c-0.211-0.208-0.316-0.586-0.316-1.133v-2.375h-0.527v-0.559h0.527V58.7H35.928 M40.893,60.614
			c-0.081-0.047-0.17-0.081-0.266-0.102c-0.094-0.023-0.198-0.035-0.312-0.035c-0.406,0-0.719,0.133-0.938,0.398
			c-0.217,0.263-0.324,0.642-0.324,1.137v2.305H38.33v-4.375h0.723v0.68c0.15-0.266,0.348-0.462,0.59-0.59
			c0.242-0.13,0.536-0.195,0.883-0.195c0.049,0,0.104,0.004,0.164,0.012c0.06,0.005,0.126,0.015,0.199,0.027L40.893,60.614
			 M45.381,61.95v0.352h-3.305c0.031,0.495,0.18,0.872,0.445,1.133c0.268,0.258,0.641,0.387,1.117,0.387
			c0.275,0,0.543-0.034,0.801-0.102c0.26-0.067,0.518-0.169,0.773-0.305v0.68c-0.258,0.109-0.522,0.192-0.793,0.25
			c-0.271,0.058-0.546,0.086-0.824,0.086c-0.698,0-1.252-0.203-1.66-0.609c-0.406-0.406-0.609-0.956-0.609-1.648
			c0-0.716,0.192-1.284,0.578-1.703c0.388-0.422,0.91-0.633,1.566-0.633c0.588,0,1.053,0.19,1.395,0.57
			C45.209,60.785,45.381,61.299,45.381,61.95 M44.662,61.739c-0.006-0.394-0.116-0.707-0.332-0.941
			c-0.214-0.234-0.498-0.352-0.852-0.352c-0.401,0-0.723,0.113-0.965,0.34c-0.24,0.227-0.378,0.546-0.414,0.957L44.662,61.739
			 M49.123,58.485h0.789v2.391h2.867v-2.391h0.789v5.832H52.78V61.54h-2.867v2.777h-0.789V58.485 M58.85,61.95v0.352h-3.305
			c0.031,0.495,0.18,0.872,0.445,1.133c0.268,0.258,0.641,0.387,1.117,0.387c0.275,0,0.543-0.034,0.801-0.102
			c0.26-0.067,0.518-0.169,0.773-0.305v0.68c-0.258,0.109-0.522,0.192-0.793,0.25c-0.271,0.058-0.546,0.086-0.824,0.086
			c-0.698,0-1.252-0.203-1.66-0.609c-0.406-0.406-0.609-0.956-0.609-1.648c0-0.716,0.192-1.284,0.578-1.703
			c0.388-0.422,0.91-0.633,1.566-0.633c0.588,0,1.053,0.19,1.395,0.57C58.678,60.785,58.85,61.299,58.85,61.95 M58.131,61.739
			c-0.006-0.394-0.116-0.707-0.332-0.941c-0.214-0.234-0.498-0.352-0.852-0.352c-0.401,0-0.723,0.113-0.965,0.34
			c-0.24,0.227-0.378,0.546-0.414,0.957L58.131,61.739 M62.549,60.614c-0.081-0.047-0.17-0.081-0.266-0.102
			c-0.094-0.023-0.198-0.035-0.312-0.035c-0.406,0-0.719,0.133-0.938,0.398c-0.217,0.263-0.324,0.642-0.324,1.137v2.305h-0.723
			v-4.375h0.723v0.68c0.15-0.266,0.348-0.462,0.59-0.59c0.242-0.13,0.536-0.195,0.883-0.195c0.049,0,0.104,0.004,0.164,0.012
			c0.06,0.005,0.126,0.015,0.199,0.027L62.549,60.614 M65.83,60.614c-0.081-0.047-0.17-0.081-0.266-0.102
			c-0.094-0.023-0.198-0.035-0.312-0.035c-0.406,0-0.719,0.133-0.938,0.398c-0.217,0.263-0.324,0.642-0.324,1.137v2.305h-0.723
			v-4.375h0.723v0.68c0.15-0.266,0.348-0.462,0.59-0.59c0.242-0.13,0.536-0.195,0.883-0.195c0.049,0,0.104,0.004,0.164,0.012
			c0.06,0.005,0.126,0.015,0.199,0.027L65.83,60.614 M70.319,61.95v0.352h-3.305c0.031,0.495,0.18,0.872,0.445,1.133
			c0.268,0.258,0.641,0.387,1.117,0.387c0.275,0,0.543-0.034,0.801-0.102c0.26-0.067,0.518-0.169,0.773-0.305v0.68
			c-0.258,0.109-0.522,0.192-0.793,0.25c-0.271,0.058-0.546,0.086-0.824,0.086c-0.698,0-1.252-0.203-1.66-0.609
			c-0.406-0.406-0.609-0.956-0.609-1.648c0-0.716,0.192-1.284,0.578-1.703c0.388-0.422,0.91-0.633,1.566-0.633
			c0.588,0,1.053,0.19,1.395,0.57C70.147,60.785,70.319,61.299,70.319,61.95 M69.6,61.739c-0.006-0.394-0.116-0.707-0.332-0.941
			c-0.214-0.234-0.498-0.352-0.852-0.352c-0.401,0-0.723,0.113-0.965,0.34c-0.24,0.227-0.378,0.546-0.414,0.957L69.6,61.739
			 M74.018,60.614c-0.081-0.047-0.17-0.081-0.266-0.102c-0.094-0.023-0.198-0.035-0.312-0.035c-0.406,0-0.719,0.133-0.938,0.398
			c-0.217,0.263-0.324,0.642-0.324,1.137v2.305h-0.723v-4.375h0.723v0.68c0.15-0.266,0.348-0.462,0.59-0.59
			c0.242-0.13,0.536-0.195,0.883-0.195c0.049,0,0.104,0.004,0.164,0.012c0.06,0.005,0.126,0.015,0.199,0.027L74.018,60.614
			 M76.752,62.118c-0.581,0-0.983,0.066-1.207,0.199c-0.225,0.133-0.336,0.359-0.336,0.68c0,0.255,0.083,0.458,0.25,0.609
			c0.169,0.148,0.398,0.223,0.688,0.223c0.398,0,0.717-0.141,0.957-0.422c0.242-0.284,0.363-0.66,0.363-1.129v-0.16H76.752
			 M78.186,61.821v2.496h-0.719v-0.664c-0.164,0.266-0.369,0.462-0.613,0.59c-0.245,0.125-0.545,0.188-0.898,0.188
			c-0.448,0-0.805-0.125-1.07-0.375c-0.264-0.253-0.395-0.59-0.395-1.012c0-0.492,0.164-0.863,0.492-1.113
			c0.33-0.25,0.822-0.375,1.477-0.375h1.008v-0.07c0-0.331-0.109-0.586-0.328-0.766c-0.217-0.183-0.521-0.273-0.914-0.273
			c-0.25,0-0.494,0.03-0.73,0.09c-0.237,0.06-0.465,0.149-0.684,0.27v-0.664c0.263-0.102,0.518-0.177,0.766-0.227
			c0.247-0.052,0.488-0.078,0.723-0.078c0.633,0,1.105,0.164,1.418,0.492S78.186,61.154,78.186,61.821"/>
	</g>
</g>
<g id="layer4" inkscape:label="tubes" inkscape:groupmode="layer">
	
		<linearGradient id="rect2301_1_" gradientUnits="userSpaceOnUse" x1="276.999" y1="-311" x2="276.999" y2="-351.0005" gradientTransform="matrix(1 0 0 -1 -232.5 -308)">
		<stop  offset="0" style="stop-color:#ADADAD;stop-opacity:0"/>
		<stop  offset="0.157" style="stop-color:#ADADAD"/>
		<stop  offset="0.8636" style="stop-color:#ADADAD"/>
		<stop  offset="1" style="stop-color:#ADADAD;stop-opacity:0"/>
	</linearGradient>
	<rect id="rect2301" x="42" y="3" fill="url(#rect2301_1_)" width="5" height="40"/>
	
		<linearGradient id="rect2334_1_" gradientUnits="userSpaceOnUse" x1="686.498" y1="-311.0005" x2="686.498" y2="-351.0005" gradientTransform="matrix(0.4 0 0 -1 -230.5997 -308)">
		<stop  offset="0" style="stop-color:#E6E6E6;stop-opacity:0"/>
		<stop  offset="0.157" style="stop-color:#E6E6E6"/>
		<stop  offset="0.8636" style="stop-color:#E6E6E6"/>
		<stop  offset="1" style="stop-color:#E6E6E6;stop-opacity:0"/>
	</linearGradient>
	<rect id="rect2334" x="43" y="3" fill="url(#rect2334_1_)" width="2" height="40"/>
	
		<linearGradient id="rect1402_1_" gradientUnits="userSpaceOnUse" x1="278.5781" y1="-331.9937" x2="273.3615" y2="-331.9937" gradientTransform="matrix(1 0 0 -1 -232.5 -308)">
		<stop  offset="0" style="stop-color:#8C8C8C"/>
		<stop  offset="0.5" style="stop-color:#DBDBDB"/>
		<stop  offset="1" style="stop-color:#6F6F6F"/>
	</linearGradient>
	
		<path id="rect1402" sodipodi:nodetypes="ccccccccc" fill="url(#rect1402_1_)" stroke="#787878" stroke-width="1" stroke-linecap="round" stroke-linejoin="round" d="
		M41.5,15.5v4h-6v7h6v4c0,2.678,6,2.627,6,0v-15C47.5,18.094,41.5,17.939,41.5,15.5z"/>
	
		<linearGradient id="rect2348_1_" gradientUnits="userSpaceOnUse" x1="272.499" y1="-325.8584" x2="272.499" y2="-330.9958" gradientTransform="matrix(1 0 0 -1 -233.5 -308)">
		<stop  offset="0" style="stop-color:#FFFFFF;stop-opacity:0.8541"/>
		<stop  offset="1" style="stop-color:#FFFFFF;stop-opacity:0"/>
	</linearGradient>
	<path id="rect2348" fill="url(#rect2348_1_)" d="M37,20h4v4h-4V20z"/>
	
		<linearGradient id="path2361_1_" gradientUnits="userSpaceOnUse" x1="270.5" y1="-331" x2="273.5" y2="-331" gradientTransform="matrix(1 0 0 -1 -233.5 -308)">
		<stop  offset="0" style="stop-color:#000000"/>
		<stop  offset="1" style="stop-color:#000000;stop-opacity:0"/>
	</linearGradient>
	<path id="path2361" opacity="0.5411" fill="url(#path2361_1_)" enable-background="new    " d="M37,19h3v8h-3V19z"/>
	<rect id="rect1421" x="42.938" y="22" fill="#FFFFFF" width="1.062" height="8"/>
	<rect id="rect2296" x="42.938" y="19" fill="#FFFFFF" width="1.062" height="2"/>
</g>
<g id="layer3" inkscape:label="folder-color" inkscape:groupmode="layer">
	<path id="path2182" sodipodi:nodetypes="ccccc" fill="#299ECC" stroke="#146775" stroke-width="1" stroke-linejoin="round" d="
		M37.498,2.501c-3.252,4.598-14.696,5.606-25.997,6.676V45.5c10.764-0.94,22.084-1.619,25.997-5.771V2.501z"/>
</g>
<g id="layer2" inkscape:label="lights" inkscape:groupmode="layer" sodipodi:insensitive="true">
	
		<radialGradient id="path2252_1_" cx="104.8164" cy="-68.581" r="13.0262" gradientTransform="matrix(2.2695 0 0 -2.9087 -218.633 -182.0292)" gradientUnits="userSpaceOnUse">
		<stop  offset="0" style="stop-color:#000000;stop-opacity:0"/>
		<stop  offset="0.47" style="stop-color:#000000;stop-opacity:0.1647"/>
		<stop  offset="1" style="stop-color:#000000;stop-opacity:0.6667"/>
	</radialGradient>
	<path id="path2252" sodipodi:nodetypes="ccccc" fill="url(#path2252_1_)" d="M37.018,4c-4.217,3.41-14.125,4.755-24.987,5.875V45
		c10.346-0.908,21.227-1.564,24.987-5.579V4z"/>
	
		<radialGradient id="path1364_1_" cx="269.8018" cy="-176.4414" r="13.0263" gradientTransform="matrix(0.9591 0 0 -1.6128 -238.9105 -269.3618)" gradientUnits="userSpaceOnUse">
		<stop  offset="0" style="stop-color:#FFFFFF;stop-opacity:0.3004"/>
		<stop  offset="1" style="stop-color:#FFFFFF;stop-opacity:0"/>
	</radialGradient>
	<path id="path1364" sodipodi:nodetypes="ccccc" fill="url(#path1364_1_)" d="M37.018,4c-4.217,3.968-14.125,4.677-24.987,5.781V45
		c10.346-0.896,21.227-1.543,24.987-5.502V4z"/>
	
		<linearGradient id="path2204_1_" gradientUnits="userSpaceOnUse" x1="283.0625" y1="-346.4287" x2="289.5626" y2="-379.455" gradientTransform="matrix(0.9213 0 0 -0.9296 -239.3114 -312.9766)">
		<stop  offset="0" style="stop-color:#FFFFFF;stop-opacity:0.7098"/>
		<stop  offset="1" style="stop-color:#FFFFFF;stop-opacity:0.1073"/>
	</linearGradient>
	
		<path id="path2204" sodipodi:nodetypes="ccccc" fill="none" stroke="url(#path2204_1_)" stroke-width="1" stroke-linejoin="round" d="
		M36.502,4.498c-4.052,3.871-13.569,4.563-24.004,5.641v34.363c9.939-0.875,20.392-1.506,24.004-5.369V4.498z"/>
</g>
</svg>
